<svg id="Layer_1" data-name="Layer 1" xmlns="http://www.w3.org/2000/svg" viewBox="0 0 500 500"><defs><style>.cls-1{fill:#fff;}.cls-2{fill:#2e1a3b;}.cls-12,.cls-13,.cls-15,.cls-3{isolation:isolate;}.cls-4{fill:#261730;}.cls-5{fill:#422454;}.cls-6{fill:#4c2b61;}.cls-7{fill:#361f45;}.cls-8{fill:#37782c;}.cls-9{fill:#489c3a;}.cls-10{fill:#ded4aa;}.cls-11{fill:#f5eabc;}.cls-12{font-size:185.01px;}.cls-12,.cls-13{fill:#ff4f4f;font-family:ArialMT, Arial;}.cls-13{font-size:185px;}.cls-14{fill:#5a3673;}.cls-15{fill:#e6e7e8;opacity:0.1;}.cls-16{fill:#3d3d3d;}.cls-17{fill:#4d4d4d;}.cls-18{fill:#ffb133;}.cls-19{fill:#ffbe54;}.cls-20{fill:#fb5152;}.cls-21{fill:#f3ffde;}.cls-22{fill:#fec108;}</style></defs><title>404</title><g id="BACKGROUND"><rect class="cls-1" x="-9" y="-9" width="513" height="514"/><rect class="cls-2" x="-9" y="-9" width="513" height="514"/></g><g class="cls-3"><path class="cls-1" d="M92.74,401.3V388.16H97a4,4,0,0,1,2.93,1,4.19,4.19,0,0,1,0,5.64,4,4,0,0,1-2.93,1H94.36v5.4Zm1.62-6.86H97a2.31,2.31,0,0,0,1.71-.65,2.45,2.45,0,0,0,.63-1.76,2.42,2.42,0,0,0-.63-1.76,2.28,2.28,0,0,0-1.71-.65H94.36Z"/><path class="cls-1" d="M105.78,401.3l3.42-13.14h2.17l3.41,13.14h-1.64l-.87-3.49h-4l-.87,3.49Zm2.84-4.86h3.31l-1-4.05c-.19-.77-.34-1.41-.45-1.93s-.17-.85-.19-1c0,.15-.09.49-.2,1s-.26,1.16-.45,1.91Z"/><path class="cls-1" d="M124.14,401.48a4,4,0,0,1-2.85-1,3.68,3.68,0,0,1-1-2.77v-5.94a3.68,3.68,0,0,1,1-2.77,4,4,0,0,1,2.85-1,3.83,3.83,0,0,1,2.8,1,3.65,3.65,0,0,1,1,2.76h-1.62a2.38,2.38,0,0,0-.59-1.72,2.19,2.19,0,0,0-1.64-.6,2.07,2.07,0,0,0-2.27,2.3v6a2.38,2.38,0,0,0,.6,1.73,2.23,2.23,0,0,0,1.67.61,2.16,2.16,0,0,0,1.64-.61,2.42,2.42,0,0,0,.59-1.73v-1.8H123.7v-1.48H128v3.28a3.65,3.65,0,0,1-1,2.76A3.83,3.83,0,0,1,124.14,401.48Z"/><path class="cls-1" d="M134.25,401.3V388.16h7.56v1.48h-6v4.06h5.33v1.44h-5.33v4.68h6v1.48Z"/><path class="cls-1" d="M160.93,401.3l3.42-13.14h2.18l3.4,13.14h-1.64l-.86-3.49h-4l-.87,3.49Zm2.84-4.86h3.31l-1-4.05c-.2-.77-.35-1.41-.45-1.93s-.18-.85-.2-1c0,.15-.09.49-.2,1s-.26,1.16-.45,1.91Z"/><path class="cls-1" d="M175.49,401.3V388.16h3.73a4.09,4.09,0,0,1,2.81.9,3.16,3.16,0,0,1,1,2.5,2.85,2.85,0,0,1-.64,1.82,2.71,2.71,0,0,1-1.66,1v.05a2.69,2.69,0,0,1,1.35.54,3.07,3.07,0,0,1,.92,1.15,3.46,3.46,0,0,1,.34,1.52,3.51,3.51,0,0,1-1,2.67,4,4,0,0,1-2.83,1Zm1.58-7.54h2.13a2.33,2.33,0,0,0,1.64-.56,2.19,2.19,0,0,0,0-3,2.24,2.24,0,0,0-1.63-.56h-2.15Zm0,6.08h2.24a2.57,2.57,0,0,0,1.79-.6,2.15,2.15,0,0,0,.65-1.65,2.43,2.43,0,0,0-.65-1.75,2.4,2.4,0,0,0-1.79-.68h-2.24Z"/><path class="cls-1" d="M189.26,401.3V388.16h3.4a4.65,4.65,0,0,1,2.21.49,3.63,3.63,0,0,1,1.44,1.36,4.12,4.12,0,0,1,.51,2.09v5.24a4.19,4.19,0,0,1-.51,2.1,3.58,3.58,0,0,1-1.44,1.37,4.65,4.65,0,0,1-2.21.49Zm1.62-1.44h1.78a2.51,2.51,0,0,0,1.86-.67,2.48,2.48,0,0,0,.68-1.85V392.1a2.44,2.44,0,0,0-.68-1.83,2.51,2.51,0,0,0-1.86-.67h-1.78Z"/><path class="cls-1" d="M206.79,401.48a3.71,3.71,0,0,1-2.81-1,3.81,3.81,0,0,1-1-2.76v-9.54h1.62v9.54a2.59,2.59,0,0,0,.53,1.71,2.41,2.41,0,0,0,3.25,0,2.54,2.54,0,0,0,.54-1.71v-9.54h1.62v9.54a3.84,3.84,0,0,1-1,2.77A3.72,3.72,0,0,1,206.79,401.48Z"/><path class="cls-1" d="M220.72,401.48a3.91,3.91,0,0,1-2.84-1,3.65,3.65,0,0,1-1-2.77v-5.94a3.65,3.65,0,0,1,1-2.77,3.91,3.91,0,0,1,2.84-1,3.85,3.85,0,0,1,2.81,1,3.65,3.65,0,0,1,1,2.76H223a2.37,2.37,0,0,0-.58-1.72,2.2,2.2,0,0,0-1.65-.6,2.24,2.24,0,0,0-1.66.6,2.34,2.34,0,0,0-.61,1.72v5.94a2.34,2.34,0,0,0,.61,1.72,2.24,2.24,0,0,0,1.66.6,2.2,2.2,0,0,0,1.65-.6,2.37,2.37,0,0,0,.58-1.72h1.62a3.65,3.65,0,0,1-1,2.76A3.85,3.85,0,0,1,220.72,401.48Z"/><path class="cls-1" d="M233.56,401.3V389.64H230v-1.48h8.82v1.48h-3.6V401.3Z"/><path class="cls-1" d="M244.55,401.3V388.16h7.56v1.48h-6v4.06h5.32v1.44h-5.32v4.68h6v1.48Z"/><path class="cls-1" d="M258.2,401.3V388.16h3.4a4.65,4.65,0,0,1,2.21.49,3.63,3.63,0,0,1,1.44,1.36,4.12,4.12,0,0,1,.51,2.09v5.24a4.19,4.19,0,0,1-.51,2.1,3.58,3.58,0,0,1-1.44,1.37,4.65,4.65,0,0,1-2.21.49Zm1.62-1.44h1.78a2.51,2.51,0,0,0,1.86-.67,2.48,2.48,0,0,0,.68-1.85V392.1a2.44,2.44,0,0,0-.68-1.83,2.51,2.51,0,0,0-1.86-.67h-1.78Z"/><path class="cls-1" d="M285.79,401.3V388.16h3.73a4.07,4.07,0,0,1,2.81.9,3.16,3.16,0,0,1,1,2.5,2.85,2.85,0,0,1-.64,1.82,2.68,2.68,0,0,1-1.66,1v.05a2.72,2.72,0,0,1,1.36.54,3.17,3.17,0,0,1,.92,1.15,3.46,3.46,0,0,1,.33,1.52,3.51,3.51,0,0,1-1,2.67,4,4,0,0,1-2.83,1Zm1.59-7.54h2.12a2.34,2.34,0,0,0,1.65-.56,2.21,2.21,0,0,0,0-3,2.28,2.28,0,0,0-1.64-.56h-2.14Zm0,6.08h2.23a2.57,2.57,0,0,0,1.79-.6,2.12,2.12,0,0,0,.66-1.65,2.3,2.3,0,0,0-2.45-2.43h-2.23Z"/><path class="cls-1" d="M302.5,401.3v-4.91l-4-8.23h1.72l2.56,5.4c.14.3.26.56.34.77a2.82,2.82,0,0,1,.16.45q0-.13.18-.45c.08-.21.2-.47.35-.77l2.55-5.4h1.68l-4,8.23v4.91Z"/><path class="cls-1" d="M326.38,401.3l3.42-13.14H332l3.4,13.14h-1.64l-.86-3.49h-4L328,401.3Zm2.85-4.86h3.31l-1-4.05c-.19-.77-.34-1.41-.45-1.93s-.17-.85-.2-1c0,.15-.09.49-.2,1s-.25,1.16-.45,1.91Z"/><path class="cls-1" d="M341.61,401.3V388.16h1.62v11.66h5.94v1.48Z"/><path class="cls-1" d="M355,401.3v-1.48h2.68V389.64H355v-1.48h7v1.48h-2.68v10.18H362v1.48Z"/><path class="cls-1" d="M367.75,401.3l3.42-13.14h2.17l3.41,13.14h-1.64l-.87-3.49h-4l-.87,3.49Zm2.84-4.86h3.31l-1-4.05c-.19-.77-.34-1.41-.45-1.93s-.17-.85-.19-1c0,.15-.09.49-.2,1s-.26,1.16-.45,1.91Z"/><path class="cls-1" d="M382.25,401.3V388.16h2.16l4,11.25c0-.3-.05-.67-.08-1.11s-.06-.9-.08-1.38,0-.95,0-1.38v-7.38h1.56V401.3h-2.16l-4-11.25c0,.29,0,.65.07,1.09s0,.9.06,1.38,0,1,0,1.4v7.38Z"/><path class="cls-1" d="M399.89,401.48a4.43,4.43,0,0,1-3-1,3.49,3.49,0,0,1-1.13-2.77h1.62a2.18,2.18,0,0,0,.7,1.72,2.72,2.72,0,0,0,1.85.62,2.43,2.43,0,0,0,1.78-.65,2.22,2.22,0,0,0,.67-1.69,2.3,2.3,0,0,0-.42-1.38,2.16,2.16,0,0,0-1.22-.8l-2-.56a3.74,3.74,0,0,1-2-1.28,3.53,3.53,0,0,1-.71-2.19,3.57,3.57,0,0,1,.47-1.84,3.24,3.24,0,0,1,1.31-1.23,4.24,4.24,0,0,1,1.95-.44,4.3,4.3,0,0,1,2,.44,3.36,3.36,0,0,1,1.34,1.22,3.43,3.43,0,0,1,.49,1.81H402a1.9,1.9,0,0,0-.62-1.46,2.21,2.21,0,0,0-1.56-.57,2.15,2.15,0,0,0-1.55.57,1.91,1.91,0,0,0-.59,1.46,1.9,1.9,0,0,0,1.47,1.95l2,.57a3.67,3.67,0,0,1,2.05,1.36,4,4,0,0,1,.72,2.37,3.58,3.58,0,0,1-1.09,2.75A4.12,4.12,0,0,1,399.89,401.48Z"/><path class="cls-1" d="M93.43,422.9V409.76h1.62v11.66H101v1.48Z"/><path class="cls-1" d="M110.28,423.08a3.74,3.74,0,0,1-2.79-1,3.93,3.93,0,0,1-1-2.93v-5.58a3.93,3.93,0,0,1,1-2.93,4.29,4.29,0,0,1,5.58,0,3.94,3.94,0,0,1,1,2.91v5.6a4,4,0,0,1-1,2.93A3.77,3.77,0,0,1,110.28,423.08Zm0-1.46a2.11,2.11,0,0,0,1.62-.6,2.41,2.41,0,0,0,.57-1.72v-5.94a2.41,2.41,0,0,0-.57-1.72,2.49,2.49,0,0,0-3.24,0,2.37,2.37,0,0,0-.58,1.72v5.94a2.37,2.37,0,0,0,.58,1.72A2.13,2.13,0,0,0,110.28,421.62Z"/><path class="cls-1" d="M124.06,423.08a3.77,3.77,0,0,1-2.79-1,4,4,0,0,1-1-2.93v-5.58a4,4,0,0,1,1-2.93,4.29,4.29,0,0,1,5.58,0,3.9,3.9,0,0,1,1,2.91v5.6a3.93,3.93,0,0,1-1,2.93A3.74,3.74,0,0,1,124.06,423.08Zm0-1.46a2.14,2.14,0,0,0,1.63-.6,2.41,2.41,0,0,0,.57-1.72v-5.94a2.41,2.41,0,0,0-.57-1.72,2.14,2.14,0,0,0-1.63-.6,2.16,2.16,0,0,0-1.62.6,2.41,2.41,0,0,0-.57,1.72v5.94a2.41,2.41,0,0,0,.57,1.72A2.16,2.16,0,0,0,124.06,421.62Z"/><path class="cls-1" d="M134.11,422.9V409.76h1.62v5.65h1.94l2.92-5.65h1.76l-3.26,6.34,3.44,6.8h-1.85l-3.06-6.07h-1.89v6.07Z"/><path class="cls-1" d="M161.74,422.9V409.76h7.74v1.48h-6.16v4.35H169v1.48h-5.65v5.83Z"/><path class="cls-1" d="M179.22,423.08a3.74,3.74,0,0,1-2.79-1,3.93,3.93,0,0,1-1-2.93v-5.58a3.93,3.93,0,0,1,1-2.93,4.29,4.29,0,0,1,5.58,0,3.94,3.94,0,0,1,1,2.91v5.6a4,4,0,0,1-1,2.93A3.77,3.77,0,0,1,179.22,423.08Zm0-1.46a2.11,2.11,0,0,0,1.62-.6,2.41,2.41,0,0,0,.57-1.72v-5.94a2.41,2.41,0,0,0-.57-1.72,2.49,2.49,0,0,0-3.24,0,2.37,2.37,0,0,0-.58,1.72v5.94a2.37,2.37,0,0,0,.58,1.72A2.13,2.13,0,0,0,179.22,421.62Z"/><path class="cls-1" d="M189.28,422.9V409.76h4.05a4.22,4.22,0,0,1,2,.48,3.41,3.41,0,0,1,1.37,1.32,3.92,3.92,0,0,1,.48,2,3.87,3.87,0,0,1-.68,2.29,3.59,3.59,0,0,1-1.82,1.33l2.68,5.74h-1.78l-2.57-5.58h-2.18v5.58Zm1.6-7h2.45a2.13,2.13,0,0,0,1.62-.64,2.63,2.63,0,0,0,0-3.37,2.16,2.16,0,0,0-1.62-.63h-2.45Z"/><path class="cls-1" d="M220.65,423.08a4.41,4.41,0,0,1-3-1,3.5,3.5,0,0,1-1.14-2.77h1.62a2.19,2.19,0,0,0,.71,1.72,2.69,2.69,0,0,0,1.85.62,2.45,2.45,0,0,0,1.78-.65,2.22,2.22,0,0,0,.67-1.69,2.3,2.3,0,0,0-.42-1.38,2.19,2.19,0,0,0-1.22-.8l-2-.56a3.67,3.67,0,0,1-2-1.28,3.53,3.53,0,0,1-.71-2.19,3.48,3.48,0,0,1,.47-1.84,3.24,3.24,0,0,1,1.31-1.23,4.17,4.17,0,0,1,1.94-.44,4.31,4.31,0,0,1,2,.44,3.36,3.36,0,0,1,1.34,1.22,3.42,3.42,0,0,1,.48,1.81H222.7a1.87,1.87,0,0,0-.61-1.46,2.21,2.21,0,0,0-1.57-.57,2.12,2.12,0,0,0-1.54.57,1.9,1.9,0,0,0-.6,1.46,2,2,0,0,0,.39,1.24,2,2,0,0,0,1.09.71l2,.57a3.61,3.61,0,0,1,2,1.36,3.9,3.9,0,0,1,.73,2.37,3.55,3.55,0,0,1-1.1,2.75A4.09,4.09,0,0,1,220.65,423.08Z"/><path class="cls-1" d="M234.37,423.08a3.74,3.74,0,0,1-2.79-1,3.93,3.93,0,0,1-1-2.93v-5.58a3.93,3.93,0,0,1,1-2.93,4.29,4.29,0,0,1,5.58,0,3.94,3.94,0,0,1,1,2.91v5.6a4,4,0,0,1-1,2.93A3.77,3.77,0,0,1,234.37,423.08Zm0-1.46A2.15,2.15,0,0,0,236,421a2.46,2.46,0,0,0,.56-1.72v-5.94a2.46,2.46,0,0,0-.56-1.72,2.15,2.15,0,0,0-1.63-.6,2.13,2.13,0,0,0-1.62.6,2.37,2.37,0,0,0-.58,1.72v5.94a2.37,2.37,0,0,0,.58,1.72A2.13,2.13,0,0,0,234.37,421.62Z"/><path class="cls-1" d="M244.05,422.9V409.76h2.39l1.68,5.69,1.74-5.69h2.4V422.9h-1.57v-6.21c0-.59,0-1.26,0-2s0-1.53.08-2.31.08-1.48.13-2.1L248.8,417h-1.4l-2-6.62c.1.89.17,1.86.2,2.91s.06,2.18.06,3.37v6.21Z"/><path class="cls-1" d="M258.34,422.9V409.76h7.56v1.48h-6v4.06h5.33v1.44h-5.33v4.68h6v1.48Z"/><path class="cls-1" d="M274.92,422.9V411.24h-3.6v-1.48h8.82v1.48h-3.6V422.9Z"/><path class="cls-1" d="M285.79,422.9V409.76h1.62v5.62h4.21v-5.62h1.62V422.9h-1.62v-6h-4.21v6Z"/><path class="cls-1" d="M299.8,422.9v-1.48h2.68V411.24H299.8v-1.48h7v1.48h-2.69v10.18h2.69v1.48Z"/><path class="cls-1" d="M313.31,422.9V409.76h2.16l4,11.25c0-.3-.05-.67-.08-1.11s-.06-.9-.08-1.38,0-.95,0-1.38v-7.38h1.56V422.9h-2.16l-4-11.25c0,.29,0,.65.07,1.09s0,.9.06,1.38,0,1,0,1.4v7.38Z"/><path class="cls-1" d="M331,423.08a3.93,3.93,0,0,1-2.84-1,3.64,3.64,0,0,1-1-2.77v-5.94a3.64,3.64,0,0,1,1-2.77,3.93,3.93,0,0,1,2.84-1,3.83,3.83,0,0,1,2.81,1,3.65,3.65,0,0,1,1.05,2.76h-1.62a2.38,2.38,0,0,0-.59-1.72A2.2,2.2,0,0,0,331,411a2.29,2.29,0,0,0-1.66.59,2.31,2.31,0,0,0-.6,1.71v6a2.38,2.38,0,0,0,.6,1.73,2.22,2.22,0,0,0,1.66.61,2.17,2.17,0,0,0,1.65-.61,2.42,2.42,0,0,0,.59-1.73v-1.8h-2.67V416h4.29v3.28a3.67,3.67,0,0,1-1.05,2.76A3.83,3.83,0,0,1,331,423.08Z"/><path class="cls-1" d="M354.86,422.9V409.76h7.56v1.48h-6v4.06h5.33v1.44h-5.33v4.68h6v1.48Z"/><path class="cls-1" d="M369.19,422.9V409.76h1.62v11.66h5.94v1.48Z"/><path class="cls-1" d="M386.11,423.08a4.44,4.44,0,0,1-3.05-1,3.52,3.52,0,0,1-1.13-2.77h1.62a2.18,2.18,0,0,0,.7,1.72,2.73,2.73,0,0,0,1.86.62,2.47,2.47,0,0,0,1.78-.65,2.25,2.25,0,0,0,.66-1.69,2.3,2.3,0,0,0-.42-1.38,2.17,2.17,0,0,0-1.21-.8l-2-.56a3.74,3.74,0,0,1-2-1.28,3.53,3.53,0,0,1-.71-2.19,3.57,3.57,0,0,1,.47-1.84A3.2,3.2,0,0,1,384,410a4.17,4.17,0,0,1,1.94-.44,4.3,4.3,0,0,1,2,.44,3.3,3.3,0,0,1,1.34,1.22,3.34,3.34,0,0,1,.49,1.81h-1.62a1.88,1.88,0,0,0-.62-1.46A2.17,2.17,0,0,0,386,411a2.15,2.15,0,0,0-1.55.57,1.93,1.93,0,0,0-.59,1.46,2.07,2.07,0,0,0,.38,1.24,2,2,0,0,0,1.09.71l2.06.57a3.68,3.68,0,0,1,2,1.36,4,4,0,0,1,.73,2.37,3.59,3.59,0,0,1-1.1,2.75A4.09,4.09,0,0,1,386.11,423.08Z"/><path class="cls-1" d="M396.22,422.9V409.76h7.56v1.48h-6v4.06h5.33v1.44h-5.33v4.68h6v1.48Z"/></g><polygon class="cls-4" points="393.42 224.78 387.56 340.93 406.91 343.72 416.85 228.86 393.42 224.78"/><polygon class="cls-5" points="365.34 335.15 367.7 225.45 393.42 224.78 387.56 340.93 365.34 335.15"/><polygon class="cls-6" points="281.98 335.95 278.65 282.62 296.65 279.95 297.98 338.62 281.98 335.95"/><polygon class="cls-7" points="296.65 279.95 350.65 280.62 350.65 302.62 400.65 308.62 396.65 343.95 297.98 338.62 296.65 279.95"/><polygon class="cls-7" points="176.6 243.72 176.6 343.22 194.65 345.79 194.65 246.62 176.6 243.72"/><polygon class="cls-6" points="142.16 243.72 145.02 294.6 66.65 310.28 72.14 346.05 176.6 343.22 176.6 243.72 142.16 243.72"/><path class="cls-8" d="M431.66,341.39c-122.31-18.11-313.17-9.27-375,6.42C180.86,364.5,308.94,367.8,431.66,341.39Z"/><path class="cls-9" d="M91,344.67c49.56-7.93,216.09-13.48,296.59-1.69-35,6-74.66,6.88-103.92,7.27C217.58,351.13,156.8,350.29,91,344.67Z"/><path class="cls-10" d="M153.44,289.54c-7.74-1.48-16.2-.67-24.05-.67-9.15,0-18.75-.82-27.82.37a1,1,0,0,0,0,2.09c8.43,1.1,17.33.37,25.83.37s17.68.93,26-.67A.78.78,0,0,0,153.44,289.54Z"/><path class="cls-10" d="M161.15,324.36c-3.91-.89-8-.54-12-.53q-7.83,0-15.65,0c-10.35,0-21-.63-31.29.36a1.07,1.07,0,0,0,0,2.13c9.67.93,19.62.33,29.33.35l15.65,0c4.61,0,9.43.51,13.94-.52A1,1,0,0,0,161.15,324.36Z"/><path class="cls-10" d="M272.93,289.54c-8.76-1.48-18.33-.67-27.23-.67-10.35,0-21.23-.82-31.5.37-1.51.18-1.51,1.91,0,2.09,9.55,1.1,19.63.37,29.25.37s20,.93,29.48-.67A.76.76,0,0,0,272.93,289.54Z"/><path class="cls-10" d="M273.66,324.36c-3.92-.89-8-.54-12-.53q-7.82,0-15.64,0c-10.36,0-21-.63-31.29.36a1.07,1.07,0,0,0,0,2.13c9.67.93,19.62.33,29.33.35l15.64,0c4.61,0,9.43.51,14-.52A1,1,0,0,0,273.66,324.36Z"/><path class="cls-10" d="M272.93,254.64c-8.76-1.48-18.33-.68-27.23-.67-10.35,0-21.23-.82-31.5.37-1.51.17-1.51,1.91,0,2.08,9.55,1.11,19.63.37,29.25.38s20,.93,29.48-.67A.76.76,0,0,0,272.93,254.64Z"/><path class="cls-11" d="M216.22,300.38c0-14.82.31-29.8-.36-44.58-.1-2.36-2.14-2.36-2.25,0-.62,13.73-.33,27.63-.35,41.39,0,14.81-.58,29.88.59,44.58.15,1.87,1.63,1.87,1.78,0C216.72,328.1,216.24,314.14,216.22,300.38Z"/><path class="cls-11" d="M241.16,284.44c0-20.33.32-40.89-.35-61.17-.11-3.25-2.15-3.25-2.25,0-.63,18.83-.33,37.92-.35,56.8,0,20.32-.59,41,.58,61.18.15,2.56,1.63,2.56,1.78,0C241.66,322.48,241.18,303.34,241.16,284.44Z"/><path class="cls-11" d="M274.49,297.35c0-15.86.32-31.9-.35-47.72-.11-2.54-2.14-2.54-2.25,0-.62,14.69-.33,29.58-.35,44.31,0,15.85-.58,32,.58,47.73.15,2,1.64,2,1.79,0C275,327,274.51,312.09,274.49,297.35Z"/><path class="cls-10" d="M365.46,289.54c-7.74-1.48-16.19-.67-24-.67-9.15,0-18.75-.82-27.82.37a1,1,0,0,0,0,2.09c8.43,1.1,17.33.37,25.83.37s17.68.93,26-.67A.78.78,0,0,0,365.46,289.54Z"/><path class="cls-10" d="M373.18,324.36c-3.92-.89-8-.54-12-.53q-7.83,0-15.65,0c-10.35,0-21-.63-31.29.36a1.07,1.07,0,0,0,0,2.13c9.68.93,19.63.33,29.34.35l15.64,0c4.61,0,9.43.51,13.95-.52A1,1,0,0,0,373.18,324.36Z"/><path class="cls-11" d="M315.73,320.62c0-7.8.32-15.7-.35-23.49a1.15,1.15,0,0,0-2.25,0c-.62,7.24-.33,14.56-.35,21.81,0,7.8-.58,15.75.58,23.49a.91.91,0,0,0,1.78,0C316.23,335.23,315.75,327.88,315.73,320.62Z"/><path class="cls-11" d="M340.68,307.73c0-12.26.32-24.67-.36-36.91-.1-2-2.14-2-2.25,0-.62,11.37-.32,22.88-.34,34.28,0,12.26-.59,24.74.58,36.91.15,1.55,1.63,1.55,1.78,0C341.18,330.69,340.7,319.13,340.68,307.73Z"/><path class="cls-11" d="M374,329.3c0-4.8.32-9.65-.35-14.44-.11-.77-2.15-.77-2.25,0-.63,4.45-.33,8.95-.35,13.41,0,4.8-.59,9.68.58,14.44.15.61,1.63.61,1.78,0C374.51,338.28,374,333.76,374,329.3Z"/><text class="cls-12" transform="translate(201.44 326.99) rotate(7.63)">0</text><text class="cls-13" transform="translate(307.01 342.98)">4</text><path class="cls-11" d="M103.71,320.62c0-7.8.32-15.7-.35-23.49a1.15,1.15,0,0,0-2.25,0c-.63,7.24-.33,14.56-.35,21.81,0,7.8-.59,15.75.58,23.49a.91.91,0,0,0,1.78,0C104.21,335.23,103.73,327.88,103.71,320.62Z"/><path class="cls-11" d="M128.66,307.73c0-12.26.31-24.67-.36-36.91-.1-2-2.14-2-2.25,0-.62,11.37-.33,22.88-.35,34.28,0,12.26-.58,24.74.59,36.91.15,1.55,1.63,1.55,1.78,0C129.16,330.69,128.68,319.13,128.66,307.73Z"/><path class="cls-11" d="M162,329.3c0-4.8.32-9.65-.35-14.44-.11-.77-2.15-.77-2.25,0-.63,4.45-.33,8.95-.35,13.41,0,4.8-.59,9.68.58,14.44.15.61,1.63.61,1.78,0C162.49,338.28,162,333.76,162,329.3Z"/><text class="cls-13" transform="translate(95.17 342.98)">4</text><path class="cls-8" d="M396.4,340.29q1.11-5.16,2.23-10.32a63.11,63.11,0,0,0-4.81,5.77,50.37,50.37,0,0,0-1-19.6A65.62,65.62,0,0,0,391.15,334a9.65,9.65,0,0,0-5.41-5.53,52.23,52.23,0,0,1,4.88,11.56C392.26,340.15,394.76,340.2,396.4,340.29Z"/><path class="cls-8" d="M185.54,333.91c.09-3,1.85-5.91,3.48-8.84a8.47,8.47,0,0,0-4.86,5.13,119.23,119.23,0,0,0-.71-17.42,35.07,35.07,0,0,0-1.11,15.67,9.44,9.44,0,0,0-4.14-4.33A21.85,21.85,0,0,1,180,334.56C181.17,334.65,184.37,333.82,185.54,333.91Z"/><path class="cls-14" d="M88.88,213.87a3.33,3.33,0,1,1,5-4.27,14.4,14.4,0,0,1,.59-3.76,4.05,4.05,0,0,1,2.21-2.52,2.48,2.48,0,0,1,3,1,11.9,11.9,0,0,1,2.52-5A4.59,4.59,0,0,1,106.5,198c2.32.69,3.34,3.38,3.68,5.77a24.49,24.49,0,0,1,0,6.84c.52-1.56,2.16-1.59,3.68-1s2,2.44,1.85,4c5.82.61,11.63-1.08,17.46-.93.73,0,1.61.15,1.9.82a1.35,1.35,0,0,1-.77,1.63c-5.08,2.44-12,1.42-17.46,1.78q-10.16.67-20.32,1.18-7.57.39-15.16.69c-.74,0-9.63.91-9.34-.5.62-3,5.28-3,7.66-3.49C82.71,214.15,85.94,214.56,88.88,213.87Z"/><path class="cls-15" d="M237.19,118.46,184.61,349.6s70.2,15.73,121.38.41L277.08,122.23Z"/><path class="cls-16" d="M314.17,118.79c-3.7,5.52-15,9-31.66,9.09-17.6.12-46.67-3.29-61.91-6.29-8.89-1.75-17-6-22.35-12.55C235.71,115.06,276.23,118.88,314.17,118.79Z"/><path class="cls-17" d="M315,117.36c-.52-13-115-23-117-9.3C198.13,119,314.37,128.61,315,117.36Z"/><path class="cls-18" d="M282.31,111c-.85-12.44-11.43-23.51-23.82-24.94s-25.2,7-28.86,18.88C236.93,115.56,273.83,119.49,282.31,111Z"/><path class="cls-19" d="M277,104.21a24.86,24.86,0,0,0-6.74-9.75c-2.62-2.36-6.77-5.16-10.46-4.89a1.27,1.27,0,0,0-.55,2.26,36.64,36.64,0,0,0,4.43,2.22,22.07,22.07,0,0,1,10.11,11.61C274.54,107.79,277.75,106.33,277,104.21Z"/><path class="cls-19" d="M278.59,110.39a7.43,7.43,0,0,0-.39-1.72,2.08,2.08,0,0,0-.7-1.2,1.26,1.26,0,0,0-1.2-.18,1.68,1.68,0,0,0-.9,1.84,7.68,7.68,0,0,0,.18,1.76,1.53,1.53,0,1,0,3-.5Z"/><path class="cls-20" d="M209.65,111.83c-3.16,0-3.16,4.91,0,4.91S212.82,111.83,209.65,111.83Z"/><path class="cls-20" d="M220.32,114.54c-2.68,0-2.68,4.15,0,4.15S223,114.54,220.32,114.54Z"/><path class="cls-20" d="M233.65,116.65c-2.53,0-2.53,3.94,0,3.94S236.19,116.65,233.65,116.65Z"/><path class="cls-20" d="M245.32,118.43c-2.82,0-2.82,4.37,0,4.37S248.14,118.43,245.32,118.43Z"/><path class="cls-20" d="M258.65,119.51c-2.72,0-2.72,4.21,0,4.21S261.38,119.51,258.65,119.51Z"/><path class="cls-20" d="M274.21,121.93l0-.16a1.94,1.94,0,0,0-3.71,0s0,.11,0,.16a2,2,0,1,0,3.78,0Z"/><path class="cls-20" d="M285,120.52c-2.7,0-2.7,4.19,0,4.19S287.69,120.52,285,120.52Z"/><path class="cls-20" d="M298.32,120.87a1.75,1.75,0,0,0,0,3.5A1.75,1.75,0,0,0,298.32,120.87Z"/><path class="cls-20" d="M308.32,118.64a1.64,1.64,0,0,0,0,3.28A1.64,1.64,0,0,0,308.32,118.64Z"/><path class="cls-15" d="M183.61,349.6s70.2,15.73,121.38.41c0,0-16.35-4.26-52.35-4C219.11,346.32,183.61,349.6,183.61,349.6Z"/><path class="cls-21" d="M177.64,190.15l-1.16-.63A6.38,6.38,0,0,1,174,187l-.63-1.17a.24.24,0,0,0-.41,0l-.64,1.17a6.29,6.29,0,0,1-2.48,2.48l-1.16.63a.24.24,0,0,0,0,.41l1.16.64a6.17,6.17,0,0,1,2.48,2.48l.64,1.16a.24.24,0,0,0,.41,0l.63-1.16a6.25,6.25,0,0,1,2.49-2.48l1.16-.64A.24.24,0,0,0,177.64,190.15Z"/><path class="cls-21" d="M369,146.46l-1.16-.64a6.23,6.23,0,0,1-2.48-2.48l-.64-1.17a.24.24,0,0,0-.41,0l-.63,1.17a6.23,6.23,0,0,1-2.48,2.48l-1.17.64a.23.23,0,0,0,0,.4l1.17.64a6.23,6.23,0,0,1,2.48,2.48l.63,1.16a.23.23,0,0,0,.41,0l.64-1.16a6.17,6.17,0,0,1,2.48-2.48l1.16-.64A.22.22,0,0,0,369,146.46Z"/><path class="cls-21" d="M125.33,157.3l-1-.53a5.12,5.12,0,0,1-2.05-2.05l-.52-1a.2.2,0,0,0-.34,0l-.53,1a5.06,5.06,0,0,1-2.05,2.05l-1,.53a.2.2,0,0,0,0,.34l1,.52a5.12,5.12,0,0,1,2.05,2.05l.53,1a.2.2,0,0,0,.34,0l.52-1a5.18,5.18,0,0,1,2.05-2.05l1-.52A.2.2,0,0,0,125.33,157.3Z"/><path class="cls-21" d="M442.58,205.16l-1-.52a5.12,5.12,0,0,1-2.05-2l-.52-1a.2.2,0,0,0-.34,0l-.53,1a5.06,5.06,0,0,1-2.05,2l-1,.52a.2.2,0,0,0,0,.34l1,.53a5.06,5.06,0,0,1,2.05,2.05l.53,1a.2.2,0,0,0,.34,0l.52-1a5.12,5.12,0,0,1,2.05-2.05l1-.53A.2.2,0,0,0,442.58,205.16Z"/><path class="cls-21" d="M383.08,136.48l-1-.53a5.06,5.06,0,0,1-2.05-2l-.53-1a.19.19,0,0,0-.33,0l-.53,1a5.06,5.06,0,0,1-2.05,2l-1,.53a.2.2,0,0,0,0,.34l1,.52a5.06,5.06,0,0,1,2.05,2l.53,1a.19.19,0,0,0,.33,0l.53-1a5.06,5.06,0,0,1,2.05-2l1-.52A.2.2,0,0,0,383.08,136.48Z"/><path class="cls-21" d="M330.24,169.72l-.53-.28a2.83,2.83,0,0,1-1.12-1.13l-.29-.52a.1.1,0,0,0-.18,0l-.29.52a2.79,2.79,0,0,1-1.13,1.13l-.52.28a.11.11,0,0,0,0,.19l.52.29a2.83,2.83,0,0,1,1.13,1.12l.29.53a.1.1,0,0,0,.18,0l.29-.53a2.87,2.87,0,0,1,1.12-1.12l.53-.29A.11.11,0,0,0,330.24,169.72Z"/><path class="cls-21" d="M194.53,171.52l-.53-.29a2.87,2.87,0,0,1-1.12-1.12l-.29-.53a.1.1,0,0,0-.18,0l-.29.53a2.87,2.87,0,0,1-1.12,1.12l-.53.29a.1.1,0,0,0,0,.18l.53.29a2.87,2.87,0,0,1,1.12,1.12l.29.53a.1.1,0,0,0,.18,0l.29-.53A2.87,2.87,0,0,1,194,172l.53-.29A.1.1,0,0,0,194.53,171.52Z"/><path class="cls-21" d="M416.79,213.22l-.53-.29a2.83,2.83,0,0,1-1.12-1.13l-.29-.52a.11.11,0,0,0-.19,0l-.29.52a2.71,2.71,0,0,1-1.12,1.13l-.53.29a.1.1,0,0,0,0,.18l.53.29a2.87,2.87,0,0,1,1.12,1.12l.29.53a.11.11,0,0,0,.19,0l.29-.53a2.75,2.75,0,0,1,1.12-1.12l.53-.29A.1.1,0,0,0,416.79,213.22Z"/><path class="cls-21" d="M141.56,148.29,141,148a2.75,2.75,0,0,1-1.12-1.12l-.29-.53a.1.1,0,0,0-.18,0l-.29.53A2.83,2.83,0,0,1,138,148l-.52.29a.11.11,0,0,0,0,.19l.52.28a2.79,2.79,0,0,1,1.13,1.13l.29.52a.1.1,0,0,0,.18,0l.29-.52a2.83,2.83,0,0,1,1.12-1.13l.53-.28A.11.11,0,0,0,141.56,148.29Z"/><path class="cls-22" d="M316.32,211.91a14.88,14.88,0,0,0-6.26-2,15,15,0,0,1-13.85,23.2,15,15,0,1,0,20.11-21.15Z"/><path class="cls-14" d="M338.76,184.83q-2.6-.36-5.23-.93a2.24,2.24,0,0,1-1.56-.85,1.52,1.52,0,0,1,.48-1.81,4.24,4.24,0,0,1,1.87-.76c1.88-.44,25.59-3.83,25.66-3.4-.36-2.3-1.38-5.34.93-7.1a3.52,3.52,0,0,1,5.17,1.47c-.11-2.47,1.76-5.72,3.31-7.65a6.2,6.2,0,0,1,6.59-2.21c2.33.81,3.8,3.79,2.63,6-1.19-3.46,3.19-8.06,6.57-9.47a9.4,9.4,0,0,1,10.07,2.36,12.44,12.44,0,0,1,3,10.18c-.43,3.25-2.11,6.13-3.7,8.9,4.35.93,8.83.56,13.23.9,3,.24,6.17.92,8.14,3-4.75,2.43-11,1.39-16.22,1.5-12,.25-23.91.39-35.82.67C355.33,185.79,347.12,186,338.76,184.83Z"/></svg>