<?xml version="1.0" encoding="utf-8"?>
<!-- Generator: Adobe Illustrator 23.0.5, SVG Export Plug-In . SVG Version: 6.00 Build 0)  -->
<svg version="1.1" id="Layer_1" xmlns="http://www.w3.org/2000/svg" xmlns:xlink="http://www.w3.org/1999/xlink" x="0px" y="0px"
	 viewBox="0 0 750 500" style="enable-background:new 0 0 750 500;" xml:space="preserve">
<style type="text/css">
	.st0{opacity:0.33;}
	.st1{clip-path:url(#SVGID_2_);}
	.st2{fill:#28003C;}
	.st3{fill:url(#SVGID_3_);}
	.st4{opacity:6.000000e-02;fill:url(#SVGID_4_);enable-background:new    ;}
	.st5{opacity:0.1;fill:#85CEE0;enable-background:new    ;}
	.st6{opacity:0.38;fill:#68324C;enable-background:new    ;}
	.st7{opacity:4.000000e-02;fill:#CC569D;enable-background:new    ;}
	.st8{opacity:0.1;fill:#CC569D;enable-background:new    ;}
	.st9{opacity:0.18;fill:#CC569D;enable-background:new    ;}
	.st10{opacity:0.11;fill:#CC569D;enable-background:new    ;}
	.st11{opacity:0.27;fill:url(#SVGID_5_);enable-background:new    ;}
	.st12{clip-path:url(#SVGID_7_);}
	.st13{opacity:0.5;fill:#6743BF;enable-background:new    ;}
	.st14{opacity:0.51;}
	.st15{fill:#251863;}
	.st16{opacity:0.51;fill:#C42D9A;enable-background:new    ;}
	.st17{fill:#B597FF;}
	.st18{fill:#C42D9A;}
	.st19{opacity:0.35;fill:#251863;enable-background:new    ;}
	.st20{opacity:0.47;fill:#DDD2FF;enable-background:new    ;}
	.st21{fill:#FFFFFF;}
	.st22{fill:#6743BF;}
	.st23{fill:#A35152;}
	.st24{fill:#FF7683;}
	.st25{fill:#804446;}
	.st26{fill:#663236;}
	.st27{opacity:0.49;}
	.st28{fill:#D8CEED;}
	.st29{opacity:0.3;}
</style>
<rect width="750" height="500"/>
<title>home-bg-1</title>
<g class="st0">
	<g>
		<defs>
			<rect id="SVGID_1_" width="750" height="500"/>
		</defs>
		<clipPath id="SVGID_2_">
			<use xlink:href="#SVGID_1_"  style="overflow:visible;"/>
		</clipPath>
		<g class="st1">
			<rect class="st2" width="750" height="500"/>
			
				<linearGradient id="SVGID_3_" gradientUnits="userSpaceOnUse" x1="375" y1="-9.094947e-13" x2="375" y2="500" gradientTransform="matrix(1 0 0 -1 0 500)">
				<stop  offset="4.000000e-02" style="stop-color:#78358F"/>
				<stop  offset="0.12" style="stop-color:#5E2C83"/>
				<stop  offset="0.23" style="stop-color:#472479"/>
				<stop  offset="0.33" style="stop-color:#361E71"/>
				<stop  offset="0.45" style="stop-color:#2C1A6C"/>
				<stop  offset="0.6" style="stop-color:#29196B"/>
			</linearGradient>
			<rect class="st3" width="750" height="500"/>
			
				<linearGradient id="SVGID_4_" gradientUnits="userSpaceOnUse" x1="-180.2018" y1="500.3517" x2="715.1851" y2="500.3517" gradientTransform="matrix(0.9734 0.229 0.229 -0.9734 -25.9444 414.5348)">
				<stop  offset="3.000000e-02" style="stop-color:#1CABA4"/>
				<stop  offset="0.52" style="stop-color:#78358F"/>
				<stop  offset="0.64" style="stop-color:#635094"/>
				<stop  offset="0.9" style="stop-color:#2D95A0"/>
				<stop  offset="1" style="stop-color:#15B3A5"/>
			</linearGradient>
			<path class="st4" d="M1.3-141.4c5.8-4.6,73.1-22.1,97.2-3.3s15.3,46.4,45.7,48.8s42.9-20.3,74.7-8.9s74.7-19,145.2,55.9
				s121.5,4.7,137.8-3.9c16.3-8.6,70.5-66.6,148.6-75.1c93.9-10.2,162.7,16.8,162.7,77.6s-28.2,94.5-28.2,94.5s-50-35.6-93.6-22
				s-57.1,75.8-122.1,73.6S479,54.3,428.3,51.9S322.9,128,223.5,149.6S82.6,89.6-13.9,80S-116-7.2-105.7-30.9S1.3-141.4,1.3-141.4z"
				/>
			<path class="st5" d="M768.2,462.3c0,0-21.5,10.8-33.4,6.8s-44.5-25.5-44.5-31.6s28,17.6,46,13.6s38.8-29.8,39.5-19
				S768.2,462.3,768.2,462.3z"/>
			<path class="st5" d="M-101,505.9c0,0,24.9-44.7,44.7-45.5s49.7,6,60.1-15.4c16.6-34.2,63.3-21.8,69.7-29.3
				c11.4-13.5-34.6-22.7-58.6-16.1c-40.6,11.2-58,23.4-78.5,19.7s-41.8-19.8-41.8-19.8L-101,505.9z"/>
			<path class="st6" d="M688.2,175c0,0-23.5-45.7-36.4-45.7s-13.8,25.7-25.7,32.8s-43-8-51,12.9s43,36.4,62.1,53.7
				s26.7,56.8,44.4,58.6C703.3,289.5,725.9,244.6,688.2,175z"/>
			<path class="st7" d="M270.8,492.6c0,0-40.7-9.6-54.6-47.1s-67.4-7.5-81.3-30s54.6-58.8,83.4-48.1s12.8,69.6,52.4,86.7
				S297.5,496.9,270.8,492.6z"/>
			<path class="st8" d="M767.8,472.7c0,0-17.5,10.6-31.3,8s-41.8-32.3-55.3-23.9c-16.5,10.3,9.6,29.2,9.6,41.4s-15.5,21.8-13.1,40.3
				h90.1V472.7z"/>
			<path class="st6" d="M794.4,139.1c0,0-28.4,29.5-69.8,18.7s-59-86.3-101.6-86.3s-52.8,0.6-71.5-6.3s-32.9-21-52.2-10.8
				s-42.6,67.6-92.6,62.5s-45.4-60.8-83.5-59s-54.5-3.4-76.6-19.3S214,2.5,159.6,5.7C95.2,9.4,47.2,105.4-112,104.2l2.3-115h904
				V139.1z"/>
			<path class="st6" d="M759.2,436.7c0,0-7.6-51.6-64.2-42.3s-75.2,25.4-103.1,16.9s-44.8-65.9-80.3-72.7s-57.5-9.3-77.8-34.7
				s-27-60.9-67.6-52.4c-40.6,8.5-87.1,79.4-136.9,71.8s-65.1-49-114.9-18.6s-48.2,93-126.8,81.1v-38.9c0,0,54.9,21.1,68.5-22
				s11.8-85.4,49-94.7s86.2,20.3,124.3-22s98.9-73.5,144.1-44s26.6,68.5,67.2,92.1s32.1,45.6,71.8,44s86.2-52.4,136.9-30.4
				s5.1,98,113.3,82.8L759.2,436.7z"/>
			<path class="st6" d="M343.8,542.4c0,0-74.1-0.7-108.2-37.8S202.2,432,163,442.3s-36.3,45.9-67.4,58.5
				c-31.1,12.6-37.8-0.7-63,13.3s-63,17-92.6-1.5s-59.3-11.9-65.9-5.2v34.8L343.8,542.4z"/>
			<path class="st9" d="M755.9,65.8c0,0-18.5-30.3-48-33.2s-54.6-22.1-51.7-51.7S784-33.9,784-30.9S755.9,65.8,755.9,65.8z"/>
			<path class="st10" d="M-100.5,66.4l6.7,21.4c0,0,41.5-8.3,50.9-37.5s32.1-20.8,59-17.4c21,2.6,88.4-6.6,96.5-38.1H-89.8
				L-100.5,66.4z"/>
			
				<linearGradient id="SVGID_5_" gradientUnits="userSpaceOnUse" x1="-18" y1="133.7428" x2="809" y2="133.7428" gradientTransform="matrix(1 0 0 -1 0 500)">
				<stop  offset="4.000000e-02" style="stop-color:#78358F"/>
				<stop  offset="0.23" style="stop-color:#662F87"/>
				<stop  offset="0.74" style="stop-color:#3A1F73"/>
				<stop  offset="1" style="stop-color:#29196B"/>
			</linearGradient>
			<path class="st11" d="M-18,492.5c9.6-41.9,12.4-123.9,115.5-180.9c51.6-28.5,61.5-33.9,97.9-69s144.8-68.3,214.6-35.1
				c37.4,17.8,99.1,32.6,151.8,32.6s89.5,20.6,118.4,57s29.7,93.6,53.5,104.9s65.2,62.7,75.3,107.9v28.9l-827-2.5V492.5z"/>
		</g>
	</g>
	<g id="Camada_2">
		<g>
			<defs>
				<rect id="SVGID_6_" width="750" height="500"/>
			</defs>
			<clipPath id="SVGID_7_">
				<use xlink:href="#SVGID_6_"  style="overflow:visible;"/>
			</clipPath>
			<g class="st12">
				<path class="st13" d="M14.1,521.1c3.1-4.2,9.3-63,52.9-109.5c40.9-43.6,35.6-45.8,63.8-74s74.3-38.4,119.2-60.4
					s116.3-33,195.7-17.3s100.4,12.5,144.2,40.8s59.6,75.2,77.3,92s58.6,62.8,59.6,127.6L14.1,521.1z"/>
				<g class="st14">
					<path class="st15" d="M198.2,507.1c0,0-7.5-12.1,11-25.2c13.1-9.3,24.3-21.7,31.4-30.9s26.8-29.1,37.6-34
						c35.2-16,45.6-23.1,56.4-28.7s50.4-11.2,51.1-6.6c0.9,6.3-29.5,7-29.5,12s23.1-1.7,36.8-5.2s32.5-0.8,45.2,3.3
						s20.5,10.5,30.7,11.5s15.8,2.5,22.9,9.7s10.3,4.1,20,10.7c9.7,6.6,25.9,16.2,21.4,21.3s-22.4-18.8-28.5-14.2s29.4,22.9,39,39.2
						s4.6,23.4,0,22.4s-11.7-27.4-27.4-39.1s-27.1-17.6-41.9-26.8s-18.4-15.6-39.3-16.1s-26-8.1-66.3-0.3
						c-22.5,4.4-36.6,5.3-52.4,10.9s-30.2,15.5-39.3,26.3s-6.7,17.3,6.9,10.5c13.8-6.9,26.9-21.8,52.3-25.3s11.7,4.6-1,8.6
						s-20.8,10.7-17.8,12.2S352,436,385.1,436s47.8,9.7,56.9,16.3s16.8,13.7,28.5,18.7s17.8,0.5,33.5,20.3
						c15.7,19.8,11.7,16.9,11.7,16.9L198.2,507.1z"/>
					<path class="st16" d="M252.6,507.3c0,0,10.4-13.6,24.8-15.5s33.7-11.9,52.1-17.4s37.2,3,47.6,10.9s11.4,8.4,31.3,7.4
						s54.1-10.9,63.5,15.6L252.6,507.3z"/>
					<path class="st17" d="M201.5,415.1c-4.8-6.5-62.3,65.6-69,63.7c-8.1-2.3,13.6-33.3,38.5-54.9s57.1-47.1,70.4-51.5
						s27.7-15,53.2-27.1s62.1-7.2,83.7-12.2s34.9-10,57.6,0s46,5,67.6,5s53.2,25.5,67.6,48.8s26.2,21.3,49.8,57.4
						c30.4,46.3,35.1,64.1,35.1,64.1h-72.1c0-28.7-21.6-77.7-34.8-92.7S503,378,475.9,375.2s-58.7-27.7-92.6-18.2
						s-38.8,5.5-86.5,17.2s-100.2,61.5-100.2,61.5s-13.3,12.2-15.7,8.6S205,419.8,201.5,415.1z"/>
					<path class="st18" d="M173.3,507.1c0,0,7.9-18.4,26.6-41.4c14-17.2-8-4.4-23.6,15.6s-14.8,25.8-14.8,25.8H173.3z"/>
					<path class="st15" d="M93.7,510.4c0,0,19.1-82.2,103.3-131.5c66.6-39.1,95.9-57.3,124.3-62.1s101.6-6.3,106.3-9
						c10.6-6-34.5-9.2-84.7-2.4c-24.3,3.3-27.8-7.6,31.8-13.8s139,23.4,142.4,14.9c2.8-7.1-70.7-28.5-138.7-26.9s-87.8,27-134,38.6
						c-46.5,11.7-100.4,51.5-118.7,72.5S98,426.7,81.8,445s-28.4,34-32.6,65.4H93.7z"/>
					<path class="st18" d="M228.6,436.2c0,0,17.6-17.2,38.6-28.7s30.2-16.1,31-19.5s-20.6,4.6-47,21.4S216.3,444.3,228.6,436.2z"/>
					<path class="st18" d="M447.2,438.5c0,0,23,8.9,42.1,23.2s27.2,20.8,30.6,20.1s-12.8-16.8-39-33.8S434.8,430.8,447.2,438.5z"/>
					<path class="st18" d="M559.4,327.4c0,0,24.7,15.9,41.5,49.2c24.5,48.5,60.9,66.1,70.5,131.8h21.3c0,0,4.7-31.9-27.9-72.2
						c-31.2-38.6-22.7-18.3-42.4-48.9c-25.5-39.7-51.9-65-67.3-70.8S559.4,327.4,559.4,327.4z"/>
				</g>
				<path class="st19" d="M478.5,508.1c0,0,0.6-13.4-17.5-19.7s-42.7,0.3-54.8-2.3s16.1-9.8,32.7-7.5s32.7-3.1,42.7,3.2
					c9.5,6,18.4,14.7,21.3,22.7c0.2,0.5,0.3,0.9,0.5,1.4C505.7,514.2,478.5,508.1,478.5,508.1z"/>
				<path class="st19" d="M349.3,405.1c0,0,1.9-5.5,12.8-5.5s18.9-3.6,29.9-5.7s15.6-5.7,28.4-2.3s23.1,7.3,30.9,9.2
					s14.7,6.1,14.7,7.8s-9.2,0-18.5-3.4s-16.4-4.7-29-5.5s-13.2-2.3-31.9,2.6S346,408.5,349.3,405.1z"/>
				<path class="st19" d="M202.3,504.7c0,0,2.3-12.5,13.2-19.1s22.4-15.6,29.3-24.7s15-22.5,19.1-15s-13.1,22.2-3.1,26
					s34.4-16.9,41.3-13.1s7.8,6.3,22.5,0.9s24.4-2.9,23.4,1.8s-27.5,5.9-38.1,11.3s-21.9,11.3-37.5,14.1s-23.4,11-27.2,17.8H202.3z"
					/>
				<path class="st20" d="M397.2,345.9c0,0,22.9-1.3,42.8,8.2s28.9,16.7,52.2,17.2s57,16.1,73.3,45.4s18.6,18.5,15.5,6.4
					s-27.2-24.5-36.3-40.3s-28.9-28.3-49.6-28.8s-31.9,0.9-52.6-6s-56.5-7.5-75.9-2.2S397.2,345.9,397.2,345.9z"/>
				<path class="st19" d="M117.3,441.9c0.9-1.3,20.2-38.9,65.5-64.2s76.6-39.1,83.9-48.3s-22.8,5.4-37,12.9s-52.5,20.8-67.3,30.5
					s-27.6,30.3-35.7,41.3S104.2,462.1,117.3,441.9z"/>
				<path class="st17" d="M219.6,445.9c0,2.2-1.8,4-4,4s-4-1.8-4-4s1.8-4,4-4S219.6,443.7,219.6,445.9z"/>
				<path class="st21" d="M169.4,468.2c0,1.2-1,2.3-2.3,2.3s-2.3-1-2.3-2.3s1-2.3,2.3-2.3S169.4,466.9,169.4,468.2L169.4,468.2z"/>
				<path class="st18" d="M124,489c0,3.7-3,6.8-6.8,6.8s-6.8-3-6.8-6.8s3-6.8,6.8-6.8l0,0C121,482.3,124,485.3,124,489z"/>
				<path class="st18" d="M97,408.4c0,2.3-1.9,4.2-4.2,4.2c-2.3,0-4.2-1.9-4.2-4.2c0-2.3,1.9-4.2,4.2-4.2h0
					C95.1,404.2,97,406.1,97,408.4z"/>
				<path class="st18" d="M383.9,423.1c0,2.1-1.7,3.9-3.9,3.9s-3.9-1.7-3.9-3.9s1.7-3.9,3.9-3.9h0
					C382.2,419.2,383.9,420.9,383.9,423.1z"/>
				<path class="st17" d="M397.2,416.6c0,1.4-1.2,2.6-2.6,2.6c-1.4,0-2.6-1.2-2.6-2.6c0-1.4,1.2-2.6,2.6-2.6
					S397.2,415.2,397.2,416.6L397.2,416.6z"/>
				<path class="st21" d="M407.1,372.7c0,2.7-2.2,4.9-4.9,4.9c-2.7,0-4.9-2.2-4.9-4.9c0-2.7,2.2-4.9,4.9-4.9l0,0
					C404.9,367.8,407.1,370,407.1,372.7z"/>
				<path class="st17" d="M343.7,374.9c0,1.2-1,2.2-2.2,2.2c-1.2,0-2.2-1-2.2-2.2c0-1.2,1-2.2,2.2-2.2c0,0,0,0,0,0
					C342.8,372.7,343.7,373.7,343.7,374.9L343.7,374.9z"/>
				<path class="st17" d="M559.6,456.9c0,2.8-2.3,5.1-5.1,5.1s-5.1-2.3-5.1-5.1c0-2.8,2.3-5.1,5.1-5.1
					C557.3,451.8,559.6,454.1,559.6,456.9z"/>
				<path class="st18" d="M589.6,377c0,3.2-2.6,5.8-5.8,5.8c-3.2,0-5.8-2.6-5.8-5.8c0-3.2,2.6-5.8,5.8-5.8c0,0,0,0,0,0
					C587,371.2,589.6,373.8,589.6,377L589.6,377z"/>
				<path class="st17" d="M471.3,322.6c0,2-1.6,3.7-3.6,3.7c-2,0-3.7-1.6-3.7-3.6c0-2,1.6-3.7,3.6-3.7c0,0,0,0,0,0
					C469.7,318.9,471.3,320.6,471.3,322.6C471.3,322.6,471.3,322.6,471.3,322.6z"/>
				<path class="st17" d="M457.6,311.2c0,2.4-1.9,4.3-4.3,4.3c-2.4,0-4.3-1.9-4.3-4.3c0-2.4,1.9-4.3,4.3-4.3c0,0,0,0,0,0
					C455.7,307,457.6,308.9,457.6,311.2z"/>
				<circle class="st17" cx="531.6" cy="299.5" r="7.5"/>
				<circle class="st21" cx="532" cy="322.6" r="3.6"/>
				<path class="st21" d="M338.1,271c0,2.1-1.7,3.9-3.9,3.9c-2.1,0-3.9-1.7-3.9-3.9c0-2.1,1.7-3.9,3.9-3.9c0,0,0,0,0,0
					C336.3,267.1,338.1,268.9,338.1,271C338.1,271,338.1,271,338.1,271z"/>
				<path class="st17" d="M266.7,294.6c0,2.7-2.2,4.8-4.8,4.8c-2.7,0-4.8-2.2-4.8-4.8c0-2.7,2.2-4.8,4.8-4.8S266.7,292,266.7,294.6
					L266.7,294.6z"/>
				<circle class="st18" cx="280.6" cy="288.5" r="3.4"/>
				<path class="st18" d="M604.4,466.6c0,2.5-2,4.6-4.6,4.6s-4.6-2-4.6-4.6c0-2.5,2-4.6,4.6-4.6c0,0,0,0,0,0
					C602.3,462.1,604.4,464.1,604.4,466.6z"/>
				<path class="st21" d="M633,437.2c0,1.8-1.4,3.2-3.2,3.2c-1.8,0-3.2-1.4-3.2-3.2s1.4-3.2,3.2-3.2S633,435.4,633,437.2L633,437.2z
					"/>
				<path class="st21" d="M639.5,370.5c0,3.6-2.9,6.5-6.5,6.5c-3.6,0-6.5-2.9-6.5-6.5c0-3.6,2.9-6.5,6.5-6.5S639.5,367,639.5,370.5
					L639.5,370.5z"/>
				<circle class="st18" cx="701.8" cy="464.5" r="2.4"/>
				<path class="st22" d="M518.2,263.2c0,2.2-1.8,3.9-3.9,3.9s-3.9-1.8-3.9-3.9c0-2.2,1.8-3.9,3.9-3.9c0,0,0,0,0,0
					C516.4,259.2,518.2,261,518.2,263.2C518.2,263.1,518.2,263.2,518.2,263.2z"/>
				<path class="st21" d="M214.5,281.8c0,1.8-1.5,3.3-3.3,3.3s-3.3-1.5-3.3-3.3c0-1.8,1.5-3.3,3.3-3.3c0,0,0,0,0,0
					C213,278.5,214.5,280,214.5,281.8C214.5,281.8,214.5,281.8,214.5,281.8z"/>
				<path class="st22" d="M110.5,341.4c0,1.7-1.3,3-3,3s-3-1.3-3-3s1.3-3,3-3S110.5,339.8,110.5,341.4z"/>
				<path class="st23" d="M206.2,359.9c0,0,4.7-0.9,5.9,1.4s-1.9,6-0.4,7.1c1.8,1,3.2,2.6,4,4.5c1.1,2.4-9.1,7.1-11.5,5
					s-3.4-3.7-5.4-7.4s1.9-8.4,4-9.5C203.9,360.3,205,359.9,206.2,359.9z"/>
				<path class="st24" d="M212.4,376.5c2.2-1.1,3.8-2.6,3.3-3.6c-1.1-2.4,0.4-2.4,0.1-4.2c-0.2-1.2-0.2-3.5-4.1-3.3
					c-0.6,0,0.9-3.1,0.4-4c-0.6-0.9-1.5-1.4-2.6-1.4l-0.1,0.2c0.7,0.8,0.9,2,0.5,3c-0.7,1.5-1.3,1.7-0.8,3.2s3.5,3.9,3.5,3.9
					L210,372l3.6,3.1l-2.8-1.5L212.4,376.5z"/>
				<path class="st25" d="M209.2,362.3c0,0-2.7,2.8-2.5,3.7c0.4,1.1,1,2.1,1.6,3c0,0-0.8-2.9-0.1-4.1
					C208.7,364.1,209,363.2,209.2,362.3z"/>
				<path class="st25" d="M198.9,370.5c2,3.6,3.1,5.3,5.4,7.4c0.7,0.6,2.2,0.6,3.8,0.3c-0.9-2.7-1.6-5.5-1.8-6.1
					c-0.3-0.9-1.6-3.8-2-5.4c-0.3-1,1.1-4.5,3.2-6.8c-0.4,0-0.8,0.1-1.2,0.1c-1.2,0-2.4,0.3-3.4,1
					C200.7,362,196.9,366.8,198.9,370.5z"/>
				<path class="st26" d="M198.2,370.8c-2-3.8,1.7-8.9,4.4-10.3c1.1-0.7,2.4-1.1,3.8-1.1c0.8-0.1,5.2-0.7,6.4,1.6
					c0.7,1.3,0,2.1-0.7,3.6c-0.5,1.2,2.5,0.7,2.9,1s0.9,2.3,1.3,2.5c1.4,0.8-0.9,2.5,0,4.5c0.5,1-0.5,2.4-2.6,3.8
					c-2.9,1.9-8.2,3.6-10.1,2C201.3,376.1,200.1,374.4,198.2,370.8z M205.9,360.5c-1,0-2,0.3-2.9,0.9c-1.6,0.9-5.4,5.3-3.6,8.8
					s3,5.1,5.3,7.3c1.2,1.1,5.5-0.1,8.3-1.9c0.5-0.4,2.3-1.5,1.9-2.3c-0.8-1.8,1.3-3.4,0-4.1c-0.4-0.3-0.3-2.4-0.7-2.7
					c-1-0.7-4.3,0.7-3.6-0.9c0.6-1.4,1.3-2.9,0.8-3.9c-1-1.9-5.3-1.1-5.3-1.1L205.9,360.5z"/>
				<path class="st23" d="M128.4,251.2c0,0,4.7-0.9,5.9,1.4s-1.9,6-0.4,7.1c1.8,1,3.2,2.6,4,4.5c1.1,2.4-9.1,7.1-11.5,5
					s-3.4-3.7-5.4-7.4s1.9-8.4,4-9.5C126.1,251.6,127.3,251.2,128.4,251.2z"/>
				<path class="st24" d="M134.6,267.8c2.2-1.1,3.8-2.6,3.3-3.6c-1.1-2.4,0.4-2.4,0.1-4.3c-0.2-1.2-0.2-3.5-4.1-3.2
					c-0.6,0,0.9-3.1,0.4-4c-0.6-0.9-1.5-1.4-2.6-1.4l-0.1,0.2c0.7,0.8,0.9,2,0.5,3c-0.7,1.5-1.3,1.8-0.8,3.3s3.5,3.9,3.5,3.9
					l-2.7,1.9l3.6,3.1l-2.8-1.5L134.6,267.8z"/>
				<path class="st25" d="M131.4,253.6c0,0-2.7,2.8-2.5,3.7c0.4,1.1,1,2.1,1.6,3c0,0-0.8-2.9-0.1-4.1
					C130.9,255.4,131.3,254.5,131.4,253.6z"/>
				<path class="st25" d="M121.1,261.7c2,3.6,3.1,5.3,5.4,7.4c0.7,0.6,2.2,0.6,3.8,0.3c-0.9-2.7-1.6-5.5-1.8-6.1
					c-0.3-0.9-1.6-3.8-2-5.4c-0.3-1,1.2-4.5,3.2-6.8c-0.7,0-1.2,0.1-1.2,0.1c-1.2,0-2.4,0.3-3.4,1
					C123,253.3,119.1,258.1,121.1,261.7z"/>
				<path class="st26" d="M120.4,262.1c-2-3.8,1.7-8.9,4.4-10.3c1.1-0.7,2.4-1.1,3.8-1.1c0.8-0.1,5.2-0.7,6.4,1.6
					c0.7,1.3,0,2.1-0.7,3.6c-0.5,1.2,2.5,0.7,2.9,1s0.9,2.3,1.3,2.5c1.4,0.8-0.9,2.5,0,4.5c0.5,1-0.5,2.4-2.6,3.8
					c-2.9,1.9-8.2,3.6-10.1,2C123.5,267.4,122.4,265.7,120.4,262.1z M128.2,251.8c-1,0-2,0.3-2.9,0.9c-1.7,0.9-5.4,5.3-3.6,8.8
					s3,5.1,5.3,7.3c1.2,1.1,5.5-0.1,8.3-1.9c0.6-0.3,2.3-1.5,1.9-2.3c-0.8-1.8,1.3-3.4,0-4.1c-0.4-0.2-0.3-2.4-0.7-2.7
					c-1-0.7-4.3,0.7-3.6-0.9c0.6-1.4,1.3-2.9,0.8-3.9c-1-1.9-5.3-1.1-5.3-1.1L128.2,251.8z"/>
				<path class="st23" d="M633.7,472.6c0,0,1.3-3.5,3.3-3.4s3.3,3.7,4.6,3.1c1.4-0.7,3-1,4.6-0.9c2.1,0.2,1.1,9-1.3,9.7
					c-2.3,0.7-4.7,0.9-7.1,0.6c-3.3-0.2-4.9-4.7-4.8-6.5C632.9,474.3,633.2,473.4,633.7,472.6z"/>
				<path class="st24" d="M647.3,475.1c0.1-1.9-0.2-3.6-1.1-3.7c-2.1-0.2-1.5-1.3-2.8-1.8c-0.9-0.3-2.4-1.3-3.8,1.4
					c-0.2,0.4-1.7-1.9-2.5-1.9c-0.8,0-1.6,0.5-2,1.1l0.1,0.1c0.8-0.1,1.7,0.2,2.2,0.9c0.7,1.1,0.7,1.6,1.8,1.9s4-0.8,4-0.8l0.2,2.5
					l3.5-1.2l-2.1,1.3L647.3,475.1z"/>
				<path class="st25" d="M636.5,471.5c0,0,0.8,3,1.4,3.2c0.9,0.1,1.8,0.2,2.7,0.1c0,0-2.3-0.6-2.8-1.6
					C637.5,472.6,637,472,636.5,471.5z"/>
				<path class="st25" d="M637.8,481.8c2.4,0.3,4.8,0,7.1-0.6c0.7-0.2,1.3-1.2,1.7-2.4c-2.2-0.5-4.3-1.2-4.8-1.3
					c-0.7-0.1-3.2-0.5-4.4-0.8c-0.8-0.2-2.5-2.6-3.3-4.9c-0.1,0.3-0.3,0.6-0.4,0.9c-0.5,0.8-0.7,1.7-0.7,2.7
					C632.9,477.1,634.5,481.6,637.8,481.8z"/>
				<path class="st26" d="M637.7,482.4c-3.4-0.2-5.3-4.8-5.2-7.1c0-1.1,0.3-2.1,0.8-3c0.2-0.6,1.6-3.8,3.7-3.7
					c1.2,0.1,1.4,0.8,2.2,1.9c0.6,0.8,1.5-1.4,1.9-1.6s1.9,0.3,2.2,0.1c1.1-0.6,1.3,1.6,3,1.8c0.9,0.1,1.4,1.3,1.5,3.3
					c0.1,2.7-0.9,7-2.8,7.5C642.6,482.4,640.1,482.6,637.7,482.4z M633.9,473c-0.4,0.7-0.6,1.5-0.6,2.3c-0.1,1.5,1.3,5.8,4.4,6
					c2.4,0.3,4.7,0.1,7-0.6c1.2-0.4,2.2-3.8,2.1-6.4c0-0.5-0.1-2.2-0.8-2.2c-1.5-0.2-1.7-2.3-2.8-1.7c-0.3,0.2-1.8-0.8-2.1-0.6
					c-0.9,0.4-1.3,3.2-2,2.1s-1.4-2-2.3-2.1c-1.7-0.1-2.9,3.1-2.9,3.1L633.9,473z"/>
				<path class="st23" d="M743.5,394c0,0,1.3-3.5,3.3-3.4s3.3,3.7,4.6,3.1c1.4-0.7,3-1,4.6-0.9c2.1,0.2,1,9-1.3,9.7
					c-2.3,0.7-4.7,0.9-7.1,0.6c-3.3-0.2-4.9-4.7-4.8-6.5C742.8,395.7,743.1,394.8,743.5,394z"/>
				<path class="st24" d="M757.2,396.5c0.1-1.9-0.2-3.6-1.1-3.7c-2.1-0.2-1.5-1.3-2.8-1.8c-0.9-0.3-2.4-1.3-3.8,1.5
					c-0.2,0.4-1.7-1.9-2.5-1.9c-0.8,0-1.5,0.5-2,1.1l0.1,0.1c0.8-0.1,1.7,0.2,2.2,0.9c0.7,1.1,0.7,1.6,1.8,1.9s4-0.8,4-0.8l0.2,2.6
					l3.5-1.2l-2.2,1.3L757.2,396.5z"/>
				<path class="st25" d="M746.4,392.9c0,0,0.8,3,1.4,3.2c0.9,0.1,1.8,0.2,2.7,0.1c0,0-2.3-0.6-2.8-1.6
					C747.3,394,746.9,393.4,746.4,392.9z"/>
				<path class="st25" d="M747.6,403.2c2.4,0.3,4.8,0.1,7.1-0.6c0.7-0.2,1.3-1.2,1.8-2.4c-2.2-0.5-4.3-1.2-4.8-1.3
					c-0.7-0.1-3.2-0.5-4.4-0.8c-0.8-0.2-2.5-2.6-3.3-4.9c-0.1,0.3-0.3,0.6-0.4,0.9c-0.5,0.8-0.7,1.7-0.7,2.7
					C742.7,398.5,744.4,403,747.6,403.2z"/>
				<path class="st26" d="M747.6,403.7c-3.4-0.2-5.3-4.8-5.2-7.1c0-1.1,0.3-2.1,0.8-3c0.2-0.6,1.6-3.8,3.7-3.7
					c1.2,0.1,1.4,0.8,2.2,1.9c0.6,0.8,1.5-1.4,1.9-1.6s1.9,0.3,2.2,0.1c1.1-0.6,1.3,1.6,3,1.8c0.9,0.1,1.4,1.3,1.5,3.3
					c0.1,2.7-0.9,7-2.8,7.5C752.5,403.8,750,404,747.6,403.7z M743.8,394.4c-0.4,0.7-0.6,1.5-0.6,2.3c-0.1,1.5,1.3,5.8,4.4,6
					c2.4,0.3,4.7,0,7-0.6c1.2-0.4,2.2-3.8,2.1-6.4c0-0.5-0.1-2.2-0.8-2.2c-1.5-0.2-1.7-2.3-2.8-1.7c-0.3,0.2-1.8-0.8-2.1-0.6
					c-0.9,0.4-1.3,3.2-2.1,2.1s-1.4-2-2.3-2.1c-1.7-0.1-2.9,3.1-2.9,3.1L743.8,394.4z"/>
				<path class="st23" d="M398.4,247.2c-0.8,0.4-1.5,1.1-1.9,1.9c-0.6,1.1-1.3,6.6-0.6,7.7c1,1.5,2.7,1.7,3.2,3.1
					c0.5,1.7,1.8,3.1,3.6,3.7c2.2,0.7,6.9-1,7.4-1.9c0.5-1.6,1.2-3.1,1.9-4.5c0.8-1.1,2-2.5,1.7-3.9s-0.9-3.2-2.9-3.7
					s-4.3,1.5-5.3,1s-3.5-3.7-5.3-3.8C399.5,246.8,398.9,246.9,398.4,247.2z"/>
				<path class="st25" d="M413,251.5c0,0.1-0.1,2.3-0.2,2.7c-0.2,0.8-1.9,1.6-2.8,1.7s-4.5-1.4-4.6-1s1.3,1,2.5,1.5
					c0.6,0.3,0.8,1.1,0.5,1.7c-0.1,0.1-0.1,0.2-0.2,0.3c-0.5,0.5-1.1,0.8-1.8,0.9c-1.7,0.1-2.2-0.2-2.6-0.8
					c-0.2-0.3,0.1-1.8-0.4-2.1s-4.4,1.4-6.7,0c-0.5-0.3-1-4.8-1.1-5.4c-0.2,0.8-0.1,5.2,0.2,5.7c1,1.5,3.1,1.6,3.2,3.1
					c0.3,3,1.4,3,3.6,3.7s6.9-1,7.4-1.9c0.5-1.6,1.2-3.1,1.9-4.5c0.8-1.1,2-2.5,1.7-3.9C413.5,252.7,413.3,252.1,413,251.5z"/>
				<path class="st24" d="M410.7,249.6c-2-0.5-4.3,1.5-5.3,1s-3.5-3.7-5.3-3.8c-0.6,0-1.2,0.1-1.7,0.4c-0.8,0.4-1.5,1.1-1.9,1.9
					c-0.1,0.2-0.2,0.4-0.3,0.6c1.2-0.6,2.4,0.5,3.4,0.4c1.7-0.2,4.3,4.1,4.3,4.1l3.5-2c-0.2-0.4-0.1-0.9,0.3-1.1c0,0,0,0,0,0
					c0.8-0.5,1.8-0.8,2.8-0.8c0.9,0.1,1.7,0.5,2.4,1.1C412.5,250.5,411.7,249.8,410.7,249.6z"/>
				<path class="st26" d="M403.9,264.2c-0.5,0-0.9-0.1-1.4-0.2c-1.7-0.6-3.5-0.9-3.6-2.3c0-0.5-0.1-1.1-0.2-1.6
					c-0.3-0.6-0.8-1.1-1.4-1.4c-0.7-0.4-1.3-1-1.8-1.6c-0.7-1.2-0.1-6.7,0.6-8.1c0.5-0.9,1.2-1.6,2.1-2.1l0,0
					c0.6-0.3,1.3-0.4,1.9-0.4c1.6,0.1,4.2,3,4.9,3.5l0.6,0.4c0.3,0.2,1-0.1,1.7-0.4c1.1-0.6,2.3-0.8,3.5-0.6c2.4,0.6,2.9,2.9,3.2,4
					c0.3,1.4-0.6,2.7-1.4,3.7l-0.3,0.4c-0.6,1-1.1,2.1-1.4,3.2c-0.2,0.5-0.4,0.9-0.5,1.2C409.7,263.4,406.4,264.2,403.9,264.2z
					 M398.6,247.5c-0.8,0.4-1.4,1-1.8,1.8c-0.9,1.6-1.1,6.7-0.6,7.3c0.4,0.6,1,1.1,1.6,1.4c0.7,0.4,1.3,1,1.7,1.8
					c0.2,0.6,0.3,1.2,0.3,1.8c0.1,1.3,1.8,1.2,3.1,1.7c2.1,0.7,6.4-0.5,6.9-1.7c0.1-0.3,0.3-0.7,0.5-1.2c0.4-1.2,0.9-2.3,1.5-3.4
					l0.3-0.5c0.7-1,1.5-2.1,1.3-3.1c-0.4-1.6-0.9-3-2.6-3.4c-1-0.1-2.1,0.1-3,0.6c-0.9,0.4-1.8,0.7-2.3,0.3
					c-0.2-0.1-0.4-0.3-0.6-0.4c-0.7-0.5-3.2-3.3-4.5-3.3C399.6,247.1,399.1,247.3,398.6,247.5L398.6,247.5z"/>
				<path class="st23" d="M645,299.8c-0.8,0.4-1.5,1.1-1.9,1.9c-0.6,1.1-1.3,6.6-0.6,7.7c1,1.5,2.7,1.7,3.2,3.1
					c0.5,1.7,1.9,3.1,3.6,3.7c2.2,0.7,6.9-1,7.3-1.9c0.5-1.6,1.2-3.1,1.9-4.5c0.8-1.1,2-2.5,1.7-3.9s-0.9-3.2-2.9-3.7
					s-4.3,1.5-5.3,1s-3.5-3.7-5.3-3.8C646.1,299.4,645.5,299.5,645,299.8z"/>
				<path class="st25" d="M659.6,304.1c0,0.1-0.1,2.3-0.2,2.7c-0.2,0.8-1.9,1.6-2.8,1.7s-4.5-1.4-4.6-1c-0.1,0.2,1.3,1,2.5,1.5
					c0.6,0.3,0.8,1.1,0.5,1.7c-0.1,0.1-0.1,0.2-0.2,0.3c-0.5,0.5-1.1,0.8-1.8,0.9c-1.7,0.1-2.2-0.2-2.6-0.8
					c-0.2-0.3,0.1-1.8-0.4-2.1s-4.4,1.4-6.7,0c-0.5-0.3-1-4.8-1.1-5.4c-0.2,0.8-0.1,5.2,0.2,5.7c1,1.5,3.1,1.6,3.2,3.1
					c0.3,3,1.4,3,3.6,3.7s6.9-1,7.3-1.9c0.5-1.6,1.2-3.1,1.9-4.5c0.8-1.1,2-2.5,1.7-3.9C660.1,305.3,659.9,304.7,659.6,304.1z"/>
				<path class="st24" d="M657.3,302.2c-2-0.5-4.3,1.5-5.3,1s-3.5-3.7-5.3-3.8c-0.6,0-1.2,0.1-1.7,0.4c-0.8,0.4-1.5,1.1-1.9,1.9
					c-0.1,0.2-0.2,0.4-0.3,0.6c1.2-0.6,2.4,0.5,3.4,0.4c1.7-0.2,4.3,4,4.3,4l3.5-2c-0.2-0.4-0.1-0.9,0.3-1.1
					c0.8-0.5,1.8-0.8,2.8-0.8c0.9,0.1,1.7,0.5,2.4,1.1C659.1,303.1,658.3,302.4,657.3,302.2z"/>
				<path class="st26" d="M650.5,316.8c-0.5,0-0.9-0.1-1.4-0.2c-1.7-0.6-3.5-0.9-3.6-2.3c0-0.5-0.1-1.1-0.2-1.6
					c-0.3-0.6-0.8-1.1-1.4-1.4c-0.7-0.4-1.3-1-1.8-1.6c-0.7-1.1-0.1-6.7,0.6-8.1c0.5-0.9,1.2-1.6,2.1-2.1l0,0
					c0.6-0.3,1.3-0.4,1.9-0.4c1.6,0.1,4.2,3,4.9,3.5c0.2,0.1,0.4,0.3,0.6,0.4s1-0.1,1.7-0.4c1.1-0.6,2.3-0.8,3.5-0.6
					c2.4,0.6,2.9,2.9,3.2,4c0.3,1.4-0.6,2.7-1.4,3.7c-0.1,0.1-0.2,0.3-0.3,0.5c-0.6,1-1.1,2.1-1.4,3.2c-0.2,0.5-0.4,0.9-0.5,1.2
					C656.3,316,653,316.8,650.5,316.8z M645.1,300.1c-0.8,0.4-1.4,1-1.8,1.8c-0.9,1.6-1.1,6.6-0.7,7.3c0.4,0.6,0.9,1.1,1.6,1.4
					c0.7,0.4,1.3,1,1.7,1.8c0.2,0.6,0.3,1.2,0.3,1.8c0.1,1.4,1.8,1.2,3.1,1.7c2.1,0.7,6.4-0.5,6.9-1.7c0.1-0.3,0.3-0.7,0.5-1.2
					c0.4-1.2,0.9-2.3,1.5-3.4c0.1-0.1,0.2-0.3,0.3-0.5c0.7-1,1.5-2.1,1.3-3.1c-0.4-1.5-0.9-3-2.6-3.4c-1-0.1-2.1,0.1-3,0.6
					c-0.9,0.4-1.7,0.7-2.3,0.3c-0.2-0.1-0.4-0.3-0.6-0.4c-0.7-0.5-3.2-3.3-4.5-3.3C646.2,299.7,645.6,299.8,645.1,300.1L645.1,300.1
					z"/>
				<path class="st23" d="M23.6,446.2c0.6-0.7,1-1.6,1.1-2.5c0.2-1.2-1.2-6.7-2.2-7.4c-1.5-1.1-3.1-0.6-4.1-1.8
					c-1.1-1.4-2.9-2.2-4.7-2.2c-2.3,0.1-6.1,3.5-6.2,4.5c0.1,1.6,0,3.3-0.2,4.9c-0.3,1.4-1,3.1-0.2,4.2s2,2.7,4.1,2.4s3.5-3,4.6-2.8
					s4.6,2.2,6.3,1.6C22.7,447,23.2,446.7,23.6,446.2z"/>
				<path class="st25" d="M8.4,447.4c0-0.1-0.8-2.1-0.8-2.6c-0.1-0.8,1.2-2.2,2-2.6s4.7-0.3,4.6-0.7s-1.6-0.4-2.8-0.5
					c-0.7-0.1-1.2-0.7-1.1-1.4c0-0.1,0.1-0.3,0.1-0.4c0.2-0.6,0.7-1.2,1.3-1.5c1.6-0.7,2.1-0.6,2.7-0.2c0.3,0.2,0.5,1.7,1.1,1.8
					s3.6-2.9,6.3-2.5c0.6,0.1,2.6,4.1,3,4.7c-0.1-0.8-1.7-4.9-2.3-5.3c-1.5-1.1-3.4-0.4-4.1-1.8c-1.4-2.7-2.4-2.3-4.7-2.2
					s-6.1,3.5-6.2,4.5c0.1,1.6,0,3.3-0.2,4.9c-0.3,1.4-1,3.1-0.2,4.2C7.6,446.5,8,447,8.4,447.4z"/>
				<path class="st24" d="M11.3,448.4c2.1-0.3,3.5-3,4.6-2.8s4.6,2.2,6.3,1.6c0.6-0.2,1.1-0.5,1.5-1c0.6-0.7,1-1.6,1.1-2.5
					c0-0.2,0.1-0.5,0.1-0.7c-0.9,1-2.5,0.4-3.3,0.9c-1.5,0.8-5.4-2.2-5.4-2.2l-2.6,3.1c0.3,0.3,0.4,0.8,0.1,1.1
					c-0.6,0.8-1.4,1.4-2.4,1.8c-0.9,0.2-1.8,0.1-2.7-0.1C9.3,448.2,10.3,448.5,11.3,448.4z"/>
				<path class="st26" d="M12.4,432.3c0.4-0.2,0.9-0.3,1.4-0.3c1.8-0.1,3.6-0.4,4.2,0.9c0.2,0.5,0.5,1,0.8,1.4
					c0.5,0.5,1.2,0.8,1.8,0.8c0.8,0.1,1.6,0.4,2.3,0.9c1.1,0.8,2.5,6.2,2.3,7.8c-0.1,1-0.5,1.9-1.2,2.7l0,0c-0.4,0.5-1,0.9-1.6,1.1
					c-1.5,0.5-5-1.3-5.8-1.5l-0.7-0.1c-0.3-0.1-0.9,0.5-1.4,1c-0.8,0.9-1.8,1.5-3,1.8c-2.4,0.3-3.8-1.6-4.4-2.6
					c-0.8-1.1-0.4-2.7,0-4l0.2-0.5c0.2-1.2,0.2-2.3,0.2-3.5c0-0.5,0-1,0-1.3C7.2,435.1,10,433.2,12.4,432.3z M23.4,445.9
					c0.6-0.6,0.9-1.4,1-2.3c0.3-1.9-1.4-6.6-2-7c-0.6-0.4-1.3-0.7-2-0.8c-0.8-0.1-1.6-0.4-2.2-1c-0.4-0.5-0.7-1-0.9-1.6
					c-0.6-1.2-2.1-0.5-3.5-0.4c-2.2,0.1-5.8,2.7-5.8,4.1c0,0.3,0,0.7,0,1.3c0.1,1.2,0,2.5-0.2,3.7l-0.2,0.5
					c-0.3,1.2-0.7,2.5-0.1,3.4c0.9,1.3,2,2.5,3.7,2.3c1-0.3,1.9-0.8,2.6-1.6c0.7-0.7,1.4-1.3,2.1-1.2l0.7,0.1
					c0.9,0.2,4.1,1.9,5.4,1.5C22.5,446.7,23,446.4,23.4,445.9L23.4,445.9z"/>
				<g class="st27">
					<path class="st28" d="M57,394.1c0,0.2-0.2,0.5-0.4,0.5c0,0,0,0,0,0c-0.3,0-0.5-0.1-0.5-0.4c0-0.3,0.1-0.5,0.4-0.5
						c0,0,0.1,0,0.1,0C56.8,393.7,57,393.9,57,394.1L57,394.1z"/>
					<circle class="st28" cx="58.4" cy="393.1" r="0.1"/>
					<path class="st28" d="M57.2,392c0,0.1,0,0.1-0.1,0.1c-0.1,0-0.1,0-0.1-0.1c0-0.1,0-0.1,0.1-0.1C57.1,391.9,57.1,391.9,57.2,392
						z"/>
					<circle class="st28" cx="58.8" cy="398.8" r="0.1"/>
					<path class="st28" d="M55.7,397.2C55.6,397.2,55.6,397.3,55.7,397.2c-0.1,0.1-0.2,0.1-0.2,0C55.5,397.1,55.5,397.1,55.7,397.2
						C55.6,397.1,55.6,397.1,55.7,397.2C55.6,397.1,55.6,397.1,55.7,397.2z"/>
					<circle class="st28" cx="59" cy="396" r="0.1"/>
					<path class="st28" d="M29.1,368.9c0,0.4-0.3,0.7-0.7,0.7s-0.7-0.3-0.7-0.7c0-0.4,0.3-0.7,0.7-0.7
						C28.7,368.2,29.1,368.5,29.1,368.9L29.1,368.9z"/>
					<path class="st28" d="M20.9,370.3c0,0.3-0.3,0.6-0.6,0.6c-0.3,0-0.6-0.3-0.6-0.6c0-0.3,0.3-0.6,0.6-0.6c0,0,0,0,0,0
						C20.6,369.6,20.9,369.9,20.9,370.3z"/>
					<path class="st28" d="M28.3,373.3c0,0.2-0.2,0.4-0.4,0.4s-0.4-0.2-0.4-0.4c0-0.2,0.2-0.4,0.4-0.4c0,0,0,0,0,0
						C28.2,372.9,28.3,373.1,28.3,373.3z"/>
					<path class="st28" d="M66.8,345.8c0,0.4-0.3,0.7-0.7,0.7s-0.7-0.3-0.7-0.7c0-0.4,0.3-0.7,0.7-0.7S66.8,345.4,66.8,345.8
						L66.8,345.8z"/>
					<path class="st28" d="M71.5,265.9c0,0.3-0.3,0.6-0.6,0.6s-0.6-0.3-0.6-0.6c0-0.3,0.3-0.6,0.6-0.6S71.5,265.5,71.5,265.9
						L71.5,265.9z"/>
					<circle class="st28" cx="62.7" cy="265" r="0.9"/>
					<path class="st28" d="M77.3,260.5c0,0.5-0.4,0.9-0.9,0.9s-0.9-0.4-0.9-0.9c0-0.5,0.4-0.9,0.9-0.9
						C76.9,259.6,77.3,260,77.3,260.5L77.3,260.5z"/>
					<path class="st28" d="M35.7,228.8c0,0.4-0.3,0.7-0.7,0.7c-0.4,0-0.7-0.3-0.7-0.7c0,0,0,0,0,0c0-0.4,0.3-0.7,0.7-0.7
						C35.4,228,35.7,228.4,35.7,228.8C35.7,228.7,35.7,228.7,35.7,228.8z"/>
					<circle class="st28" cx="44.8" cy="222.6" r="0.5"/>
					<path class="st28" d="M27,218.7c0,0.4-0.3,0.7-0.7,0.7s-0.7-0.3-0.7-0.7c0-0.4,0.3-0.7,0.7-0.7C26.7,217.9,27,218.3,27,218.7
						L27,218.7z"/>
					<circle class="st28" cx="49.9" cy="189.6" r="0.9"/>
					<circle class="st28" cx="33" cy="185.6" r="0.8"/>
					<circle class="st28" cx="44.2" cy="177.7" r="0.7"/>
					<circle class="st28" cx="37.2" cy="197.2" r="0.5"/>
					<path class="st28" d="M22.5,192.3c0,0.3-0.2,0.5-0.5,0.5c-0.3,0-0.5-0.2-0.5-0.5s0.2-0.5,0.5-0.5
						C22.3,191.8,22.5,192,22.5,192.3z"/>
					<path class="st28" d="M35.9,148.2c0,0.3-0.2,0.5-0.5,0.5s-0.5-0.2-0.5-0.5c0-0.3,0.2-0.5,0.5-0.5S35.9,148,35.9,148.2
						L35.9,148.2z"/>
					<circle class="st28" cx="59.5" cy="148.2" r="0.5"/>
					<path class="st28" d="M157.8,46.1c0,0.7-0.5,1.2-1.2,1.2c-0.7,0-1.2-0.5-1.2-1.2c0-0.7,0.5-1.2,1.2-1.2c0,0,0,0,0,0
						C157.3,44.9,157.8,45.4,157.8,46.1z"/>
					<circle class="st28" cx="131.5" cy="28.8" r="0.8"/>
					<circle class="st28" cx="147.7" cy="26.7" r="1.3"/>
					<circle class="st28" cx="87.8" cy="26.7" r="1.3"/>
					<path class="st28" d="M97.7,1.6c0,1.1-0.9,2.1-2.1,2.1c-1.1,0-2.1-0.9-2.1-2.1s0.9-2.1,2.1-2.1c0,0,0,0,0,0
						C96.8-0.4,97.7,0.5,97.7,1.6z"/>
					<path class="st28" d="M39,64c0,0.8-0.7,1.5-1.5,1.5c-0.8,0-1.5-0.7-1.5-1.5c0-0.8,0.7-1.5,1.5-1.5c0,0,0,0,0,0
						C38.3,62.5,39,63.2,39,64C39,64,39,64,39,64z"/>
					<path class="st28" d="M55.8,83.8c0,0.6-0.5,1.1-1.1,1.1c-0.6,0-1.1-0.5-1.1-1.1c0-0.6,0.5-1.1,1.1-1.1
						C55.3,82.6,55.8,83.2,55.8,83.8C55.8,83.8,55.8,83.8,55.8,83.8z"/>
					<circle class="st28" cx="112.3" cy="78.8" r="1.4"/>
					<circle class="st28" cx="723.4" cy="68.6" r="0.5"/>
					<circle class="st28" cx="721.5" cy="69.7" r="0.1"/>
					<path class="st28" d="M722.7,70.8c0-0.1,0-0.1,0.1-0.1c0.1,0,0.1,0,0.1,0.1l0,0c0,0.1,0,0.1-0.1,0.1
						C722.8,70.9,722.7,70.8,722.7,70.8z"/>
					<path class="st28" d="M721,64c0-0.1,0-0.1,0.1-0.1c0.1,0,0.1,0.1,0.1,0.1c0,0.1,0,0.1-0.1,0.1C721.1,64.1,721,64.1,721,64
						C721,64,721,64,721,64z"/>
					<path class="st28" d="M724.2,65.6C724.2,65.6,724.3,65.5,724.2,65.6L724.2,65.6c0.1-0.1,0.2,0,0.2,0
						C724.4,65.7,724.4,65.7,724.2,65.6C724.3,65.7,724.2,65.7,724.2,65.6C724.2,65.6,724.2,65.6,724.2,65.6z"/>
					<path class="st28" d="M720.8,66.8c0-0.1,0-0.1,0.1-0.1c0.1,0,0.1,0,0.1,0.1c0,0,0,0,0,0c0,0.1,0,0.1-0.1,0.1
						C720.8,66.9,720.8,66.8,720.8,66.8z"/>
					<path class="st28" d="M713.1,117c0-0.4,0.3-0.7,0.7-0.7c0.4,0,0.7,0.3,0.7,0.7c0,0.4-0.3,0.7-0.7,0.7S713.1,117.4,713.1,117
						C713.1,117,713.1,117,713.1,117z"/>
					<path class="st28" d="M708.3,196.9c0-0.3,0.4-0.6,0.7-0.5c0.3,0,0.5,0.3,0.5,0.5c0,0.3-0.4,0.6-0.7,0.5
						C708.6,197.4,708.4,197.2,708.3,196.9z"/>
					<circle class="st28" cx="717.2" cy="197.8" r="0.8"/>
					<path class="st28" d="M702.6,202.3c0-0.5,0.4-0.9,0.9-0.9c0.5,0,0.9,0.4,0.9,0.9s-0.4,0.9-0.9,0.9l0,0
						C703,203.2,702.6,202.8,702.6,202.3z"/>
					<circle class="st28" cx="744.8" cy="234" r="0.7"/>
					<path class="st28" d="M734.6,240.2c0-0.3,0.2-0.5,0.5-0.5s0.5,0.2,0.5,0.5c0,0.3-0.2,0.5-0.5,0.5l0,0
						C734.8,240.7,734.6,240.4,734.6,240.2z"/>
					<circle class="st28" cx="730" cy="273.1" r="0.9"/>
					<circle class="st28" cx="746.9" cy="277.2" r="0.8"/>
					<path class="st28" d="M735,285.1c0-0.4,0.3-0.7,0.7-0.7c0.4,0,0.7,0.3,0.7,0.7s-0.3,0.7-0.7,0.7l0,0
						C735.3,285.8,735,285.5,735,285.1z"/>
					<path class="st28" d="M742.2,265.6c0-0.3,0.2-0.5,0.5-0.5c0.3,0,0.5,0.2,0.5,0.5c0,0.3-0.2,0.5-0.5,0.5l0,0
						C742.4,266.1,742.2,265.8,742.2,265.6z"/>
					<path class="st28" d="M743.9,314.6c0-0.3,0.2-0.5,0.5-0.5c0.3,0,0.5,0.2,0.5,0.5c0,0.3-0.2,0.5-0.5,0.5l0,0
						C744.1,315,743.9,314.8,743.9,314.6z"/>
					<path class="st28" d="M719.8,314.6c0-0.3,0.2-0.5,0.5-0.5c0.3,0,0.5,0.2,0.5,0.5c0,0.3-0.2,0.5-0.5,0.5l0,0
						C720,315,719.8,314.8,719.8,314.6z"/>
					<path class="st28" d="M622,416.7c0-0.7,0.5-1.2,1.2-1.2c0.7,0,1.2,0.5,1.2,1.2c0,0.7-0.5,1.2-1.2,1.2c0,0,0,0,0,0
						C622.6,417.9,622,417.4,622,416.7L622,416.7z"/>
					<circle class="st28" cx="648.3" cy="434" r="0.8"/>
					<path class="st28" d="M630.8,436.1c0-0.7,0.6-1.3,1.3-1.3s1.3,0.6,1.3,1.3c0,0.7-0.6,1.3-1.3,1.3l0,0
						C631.4,437.4,630.8,436.8,630.8,436.1z"/>
					<path class="st28" d="M690.7,436.1c0-0.7,0.6-1.3,1.3-1.3s1.3,0.6,1.3,1.3c0,0.7-0.6,1.3-1.3,1.3l0,0
						C691.3,437.4,690.7,436.8,690.7,436.1z"/>
					<path class="st28" d="M682.1,461.2c0-1.1,0.9-2.1,2.1-2.1s2.1,0.9,2.1,2.1c0,1.1-0.9,2.1-2.1,2.1l0,0
						C683.1,463.2,682.1,462.3,682.1,461.2z"/>
					<circle class="st28" cx="731.5" cy="465.4" r="0.8"/>
					<path class="st28" d="M740.9,398.8c0-0.8,0.7-1.5,1.5-1.5c0.8,0,1.5,0.7,1.5,1.5c0,0.8-0.7,1.5-1.5,1.5c0,0,0,0,0,0
						C741.6,400.4,740.9,399.7,740.9,398.8C740.9,398.8,740.9,398.8,740.9,398.8z"/>
					<path class="st28" d="M724.1,379c0-0.6,0.5-1.1,1.1-1.1s1.1,0.5,1.1,1.1s-0.5,1.1-1.1,1.1l0,0
						C724.6,380.1,724.1,379.6,724.1,379z"/>
					<circle class="st28" cx="667.6" cy="384" r="1.4"/>
					<path class="st28" d="M697.1,495.3c0-0.7,0.6-1.3,1.3-1.3s1.3,0.6,1.3,1.3c0,0.7-0.6,1.3-1.3,1.3l0,0
						C697.7,496.6,697.1,496,697.1,495.3z"/>
					<circle class="st28" cx="527.6" cy="261.8" r="1.6"/>
					<path class="st28" d="M520,264.1c0-0.7,0.5-1.2,1.2-1.2c0.7,0,1.2,0.5,1.2,1.2c0,0.7-0.5,1.2-1.2,1.2c0,0,0,0,0,0
						C520.6,265.4,520,264.8,520,264.1z"/>
					<path class="st28" d="M518.9,258.5c0-1,0.8-1.8,1.8-1.8c1,0,1.8,0.8,1.8,1.8s-0.8,1.8-1.8,1.8
						C519.7,260.3,518.9,259.5,518.9,258.5L518.9,258.5z"/>
					<path class="st28" d="M542.9,259.4c0-0.5,0.4-0.9,0.9-0.9s0.9,0.4,0.9,0.9c0,0.5-0.4,0.9-0.9,0.9S542.9,259.9,542.9,259.4
						L542.9,259.4z"/>
					<path class="st28" d="M529.9,247.5c0-0.5,0.4-1,0.9-1s1,0.4,1,0.9c0,0.5-0.4,1-0.9,1c0,0,0,0,0,0
						C530.3,248.4,529.9,248,529.9,247.5z"/>
					<path class="st28" d="M496,261c0-0.4,0.3-0.8,0.8-0.8s0.8,0.3,0.8,0.8s-0.3,0.8-0.8,0.8l0,0C496.3,261.8,496,261.4,496,261z"/>
					<circle class="st28" cx="495.6" cy="251.7" r="1.1"/>
					<path class="st28" d="M503.1,258c0-0.7,0.6-1.3,1.3-1.3c0.7,0,1.3,0.6,1.3,1.3c0,0.7-0.6,1.3-1.3,1.3c0,0,0,0,0,0
						C503.7,259.3,503.1,258.7,503.1,258z"/>
					<path class="st28" d="M482.3,223c0-0.9,0.7-1.6,1.6-1.6c0.9,0,1.6,0.7,1.6,1.6c0,0.9-0.7,1.6-1.6,1.6l0,0
						C483,224.6,482.3,223.9,482.3,223z"/>
					<circle class="st28" cx="480.8" cy="228.1" r="1.4"/>
					<path class="st28" d="M476.1,223.8c0-0.4,0.4-0.8,0.8-0.8s0.8,0.4,0.8,0.8c0,0.4-0.4,0.8-0.8,0.8c0,0,0,0,0,0
						C476.4,224.6,476.1,224.3,476.1,223.8z"/>
					<path class="st28" d="M264.9,145c0-0.9,0.7-1.6,1.6-1.6c0.9,0,1.6,0.7,1.6,1.6s-0.7,1.6-1.6,1.6l0,0
						C265.6,146.6,264.9,145.9,264.9,145z"/>
					<path class="st28" d="M256.9,151.7c0-0.7,0.6-1.3,1.3-1.3c0.7,0,1.3,0.6,1.3,1.3c0,0.7-0.6,1.3-1.3,1.3
						C257.5,153,256.9,152.4,256.9,151.7C256.9,151.7,256.9,151.7,256.9,151.7z"/>
					<path class="st28" d="M255.1,141.8c0-0.9,0.7-1.6,1.6-1.6c0.9,0,1.6,0.7,1.6,1.6c0,0.9-0.7,1.6-1.6,1.6c0,0,0,0,0,0
						C255.8,143.4,255.1,142.7,255.1,141.8C255.1,141.8,255.1,141.8,255.1,141.8z"/>
					<path class="st28" d="M245.4,150.4c-0.1-0.7,0.5-1.3,1.2-1.4c0.7-0.1,1.3,0.5,1.4,1.2c0,0.1,0,0.2,0,0.2
						c-0.1,0.7-0.7,1.2-1.4,1.2C245.9,151.6,245.4,151.1,245.4,150.4z"/>
					<path class="st28" d="M279.6,132c0-0.9,0.8-1.7,1.7-1.7c0.9,0,1.7,0.8,1.7,1.7c0,0.9-0.8,1.7-1.7,1.7c0,0,0,0,0,0
						C280.4,133.7,279.6,133,279.6,132C279.6,132,279.6,132,279.6,132z"/>
					<circle class="st28" cx="225.8" cy="120.6" r="2.9"/>
					<circle class="st28" cx="179.1" cy="279.2" r="1.1"/>
					<path class="st28" d="M170.6,293c0-0.8,0.6-1.4,1.4-1.4s1.4,0.6,1.4,1.4c0,0.8-0.6,1.4-1.4,1.4
						C171.2,294.4,170.6,293.8,170.6,293z"/>
					<path class="st28" d="M168,281.6c0.1-0.7,0.7-1.2,1.4-1.2c0.6,0.1,1.1,0.5,1.2,1.2c0.1,0.7-0.5,1.3-1.2,1.4
						c-0.7,0.1-1.3-0.5-1.4-1.2C168,281.7,168,281.6,168,281.6z"/>
					<path class="st28" d="M160.8,290.5c0-0.6,0.5-1.1,1.1-1.1s1.1,0.5,1.1,1.1c0,0.6-0.5,1.1-1.1,1.1c0,0,0,0,0,0
						C161.3,291.6,160.8,291.1,160.8,290.5z"/>
					<path class="st28" d="M178.3,465.3c0-0.4,0.3-0.7,0.7-0.6c0.4,0,0.6,0.3,0.6,0.6c0,0.4-0.3,0.7-0.6,0.7
						C178.6,466,178.3,465.7,178.3,465.3z"/>
					<circle class="st28" cx="176.1" cy="467.9" r="0.4"/>
					<path class="st28" d="M173.1,465.3c0-0.4,0.3-0.7,0.7-0.7s0.7,0.3,0.7,0.7c0,0.4-0.3,0.7-0.7,0.7S173.1,465.7,173.1,465.3
						L173.1,465.3z"/>
					<path class="st28" d="M166.3,469.7c0-0.8,0.6-1.4,1.4-1.4s1.4,0.6,1.4,1.4c0,0.8-0.6,1.4-1.4,1.4S166.3,470.4,166.3,469.7
						L166.3,469.7z"/>
					<path class="st28" d="M162.4,470.4c0-0.4,0.3-0.7,0.7-0.7s0.7,0.3,0.7,0.7s-0.3,0.7-0.7,0.7S162.4,470.7,162.4,470.4
						L162.4,470.4z"/>
					<path class="st28" d="M162.6,466c0-0.8,0.6-1.4,1.4-1.4s1.4,0.6,1.4,1.4c0,0.8-0.6,1.4-1.4,1.4S162.6,466.8,162.6,466
						L162.6,466z"/>
					<path class="st28" d="M155.4,470.4c0-0.4,0.3-0.7,0.7-0.7s0.7,0.3,0.7,0.7s-0.3,0.7-0.7,0.7S155.4,470.7,155.4,470.4
						L155.4,470.4z"/>
					<path class="st28" d="M189.1,466.5c0-0.1,0.1-0.1,0.1-0.1c0.1,0,0.1,0.1,0.1,0.1c0,0.1-0.1,0.1-0.1,0.1
						C189.1,466.7,189.1,466.6,189.1,466.5L189.1,466.5z"/>
					<path class="st28" d="M184.6,460.8c0-0.3,0.3-0.6,0.6-0.6c0.3,0,0.6,0.3,0.6,0.6c0,0,0,0,0,0c0,0.3-0.3,0.6-0.6,0.6
						C184.9,461.5,184.6,461.2,184.6,460.8C184.6,460.8,184.6,460.8,184.6,460.8z"/>
					<path class="st28" d="M60.5,346.4c0-0.4,0.3-0.7,0.7-0.7c0.4,0,0.7,0.3,0.7,0.7c0,0.4-0.3,0.7-0.7,0.7c0,0,0,0,0,0
						C60.8,347.1,60.5,346.7,60.5,346.4C60.5,346.4,60.5,346.4,60.5,346.4z"/>
					<path class="st28" d="M60.5,351.6c0-0.4,0.3-0.7,0.7-0.7c0.4,0,0.7,0.3,0.7,0.7c0,0.4-0.3,0.7-0.7,0.7c0,0,0,0,0,0
						C60.8,352.3,60.5,352,60.5,351.6z"/>
					<circle class="st28" cx="57.1" cy="355" r="1"/>
					<path class="st28" d="M55.3,350.8c0-0.5,0.4-0.9,0.9-0.9s0.9,0.4,0.9,0.9c0,0.5-0.4,0.9-0.9,0.9
						C55.7,351.6,55.3,351.2,55.3,350.8L55.3,350.8z"/>
					<path class="st28" d="M28,381.9c0-0.4,0.3-0.7,0.7-0.7s0.7,0.3,0.7,0.7s-0.3,0.7-0.7,0.7C28.3,382.6,28,382.3,28,381.9
						L28,381.9z"/>
					<circle class="st28" cx="19.9" cy="382.2" r="0.3"/>
					<path class="st28" d="M49.3,381.9c0-0.4,0.3-0.7,0.7-0.7c0.4,0,0.7,0.3,0.7,0.7c0,0.4-0.3,0.7-0.7,0.7
						C49.6,382.6,49.3,382.3,49.3,381.9z"/>
					<path class="st28" d="M17.2,359.1c0-0.7,0.5-1.2,1.2-1.2c0.7,0,1.2,0.5,1.2,1.2c0,0.7-0.5,1.2-1.2,1.2c0,0,0,0,0,0
						C17.7,360.3,17.2,359.7,17.2,359.1C17.2,359.1,17.2,359.1,17.2,359.1z"/>
					<circle class="st28" cx="21.8" cy="313.1" r="1.1"/>
					<path class="st28" d="M18.4,316.7c0-0.3,0.3-0.6,0.6-0.6c0.3,0,0.6,0.3,0.6,0.6c0,0.3-0.3,0.6-0.6,0.6
						C18.7,317.3,18.4,317,18.4,316.7L18.4,316.7z"/>
					<path class="st28" d="M32.9,311.9c0-0.7,0.5-1.2,1.2-1.2s1.2,0.5,1.2,1.2c0,0.7-0.5,1.2-1.2,1.2
						C33.4,313.1,32.9,312.6,32.9,311.9L32.9,311.9z"/>
					<path class="st28" d="M27.9,303.5c0-0.5,0.4-0.9,0.9-0.9s0.9,0.4,0.9,0.9c0,0.5-0.4,0.9-0.9,0.9
						C28.3,304.4,27.9,304,27.9,303.5L27.9,303.5z"/>
					<circle class="st28" cx="20.9" cy="307.8" r="0.9"/>
					<path class="st28" d="M19.6,254.5c0-0.3,0.3-0.6,0.6-0.6s0.6,0.3,0.6,0.6c0,0.3-0.3,0.6-0.6,0.6
						C19.9,255.1,19.6,254.8,19.6,254.5L19.6,254.5z"/>
					<path class="st28" d="M696.4,193.9c0-0.6,0.4-1,1-1s1,0.4,1,1s-0.4,1-1,1S696.4,194.5,696.4,193.9z"/>
					<path class="st28" d="M694.6,200c0-0.8,0.6-1.4,1.4-1.4c0.8,0,1.4,0.6,1.4,1.4c0,0.8-0.6,1.4-1.4,1.4c0,0,0,0,0,0
						C695.2,201.4,694.6,200.8,694.6,200z"/>
					<circle class="st28" cx="704.7" cy="73.3" r="0.6"/>
					<circle class="st28" cx="701.3" cy="75.8" r="0.9"/>
					<path class="st28" d="M698.5,71.7c0-0.6,0.4-1,1-1s1,0.4,1,1s-0.4,1-1,1S698.5,72.2,698.5,71.7z"/>
					<path class="st28" d="M692,75.8c0-0.5,0.4-0.9,0.9-0.9c0.5,0,0.9,0.4,0.9,0.9s-0.4,0.9-0.9,0.9c0,0,0,0,0,0
						C692.4,76.7,692,76.3,692,75.8C692,75.8,692,75.8,692,75.8z"/>
					<circle class="st28" cx="716.8" cy="78.6" r="1.3"/>
					<circle class="st28" cx="689.5" cy="65.7" r="0.9"/>
					<path class="st28" d="M280.9,491.1c0-0.4,0.3-0.7,0.6-0.7s0.7,0.3,0.7,0.6c0,0,0,0,0,0c0,0.4-0.3,0.6-0.7,0.6
						C281.2,491.8,280.9,491.5,280.9,491.1z"/>
					<path class="st28" d="M276.1,493.8c0-0.3,0.3-0.6,0.6-0.6s0.6,0.3,0.6,0.6c0,0.3-0.3,0.6-0.6,0.6h0
						C276.4,494.4,276.1,494.1,276.1,493.8z"/>
					<path class="st28" d="M274.1,489.5c0-0.6,0.4-1,1-1s1,0.4,1,1s-0.4,1-1,1S274.1,490,274.1,489.5z"/>
					<path class="st28" d="M264.8,493.1c0-0.7,0.6-1.3,1.3-1.3s1.3,0.6,1.3,1.3c0,0.7-0.6,1.3-1.3,1.3l0,0
						C265.4,494.4,264.8,493.8,264.8,493.1z"/>
					<path class="st28" d="M298.2,492.2c0-0.9,0.7-1.6,1.6-1.6c0.9,0,1.6,0.7,1.6,1.6c0,0.9-0.7,1.6-1.6,1.6
						C298.9,493.8,298.2,493.1,298.2,492.2L298.2,492.2z"/>
					<circle class="st28" cx="284.1" cy="482" r="1"/>
					<circle class="st28" cx="271" cy="479.7" r="1.3"/>
					<path class="st28" d="M263,483.9c0-0.5,0.4-0.9,0.9-0.9c0.5,0,0.9,0.4,0.9,0.9c0,0.5-0.4,0.9-0.9,0.9
						C263.4,484.8,263,484.4,263,483.9C263,483.9,263,483.9,263,483.9z"/>
					<circle class="st28" cx="240" cy="493.7" r="0.6"/>
					<path class="st28" d="M243.4,473.2c0-0.4,0.4-0.8,0.8-0.8s0.8,0.4,0.8,0.8c0,0.4-0.4,0.8-0.8,0.8c0,0,0,0,0,0
						C243.8,474,243.4,473.7,243.4,473.2z"/>
					<path class="st28" d="M233.8,481.5c0-0.3,0.2-0.5,0.5-0.5c0.3,0,0.5,0.2,0.5,0.5c0,0.3-0.2,0.5-0.5,0.5c0,0,0,0,0,0
						C234.1,482,233.8,481.8,233.8,481.5z"/>
					<path class="st28" d="M282.7,466c0-0.4,0.3-0.7,0.7-0.7s0.7,0.3,0.7,0.7s-0.3,0.7-0.7,0.7S282.7,466.4,282.7,466L282.7,466z"/>
					<path class="st28" d="M106.4,342.6c0-0.7,0.6-1.3,1.3-1.3c0.7,0,1.3,0.6,1.3,1.3c0,0.7-0.6,1.3-1.3,1.3c0,0,0,0,0,0
						C107,343.9,106.4,343.3,106.4,342.6C106.4,342.6,106.4,342.6,106.4,342.6z"/>
					<circle class="st28" cx="105.2" cy="348.2" r="1.1"/>
					<path class="st28" d="M101.4,342.6c0-0.7,0.6-1.3,1.3-1.3c0.7,0,1.3,0.6,1.3,1.3c0,0.7-0.6,1.3-1.3,1.3c0,0,0,0,0,0
						C102,343.9,101.4,343.3,101.4,342.6C101.4,342.6,101.4,342.6,101.4,342.6z"/>
					<path class="st28" d="M95.5,350.8c0-0.8,0.7-1.5,1.5-1.5c0.8,0,1.5,0.7,1.5,1.5s-0.7,1.5-1.5,1.5c0,0,0,0,0,0
						C96.1,352.3,95.5,351.7,95.5,350.8C95.5,350.8,95.5,350.8,95.5,350.8z"/>
					<path class="st28" d="M106.4,363.4c0-0.4,0.3-0.7,0.7-0.7s0.7,0.3,0.7,0.7c0,0,0,0,0,0c0,0.4-0.3,0.7-0.7,0.7
						C106.7,364,106.4,363.7,106.4,363.4z"/>
					<path class="st28" d="M81.4,338.6c0-1.5,1.2-2.7,2.7-2.7s2.7,1.2,2.7,2.7c0,1.5-1.2,2.7-2.7,2.7
						C82.6,341.3,81.4,340.1,81.4,338.6L81.4,338.6z"/>
					<path class="st28" d="M109,297.1c0-0.7,0.5-1.2,1.2-1.2s1.2,0.5,1.2,1.2s-0.5,1.2-1.2,1.2c0,0,0,0,0,0
						C109.6,298.4,109,297.8,109,297.1L109,297.1z"/>
					<path class="st28" d="M140.8,394.7c0-1,0.8-1.8,1.8-1.8s1.8,0.8,1.8,1.8c0,1-0.8,1.8-1.8,1.8c0,0,0,0,0,0
						C141.6,396.5,140.8,395.7,140.8,394.7z"/>
					<circle class="st28" cx="137.5" cy="400.3" r="1.1"/>
					<circle class="st28" cx="134.3" cy="393.9" r="0.9"/>
					<circle class="st28" cx="126.3" cy="402.5" r="1.1"/>
					<path class="st28" d="M125.3,414.1c0-0.6,0.5-1.1,1.1-1.1s1.1,0.5,1.1,1.1c0,0.6-0.5,1.1-1.1,1.1c0,0,0,0,0,0
						C125.7,415.2,125.3,414.7,125.3,414.1z"/>
					<path class="st28" d="M119.8,408.9c0-0.7,0.6-1.3,1.3-1.3s1.3,0.6,1.3,1.3s-0.6,1.3-1.3,1.3c0,0,0,0,0,0
						C120.4,410.3,119.8,409.7,119.8,408.9C119.8,408.9,119.8,408.9,119.8,408.9z"/>
					<path class="st28" d="M510.9,342.2c0-0.9,0.8-1.7,1.7-1.7c0.9,0,1.7,0.8,1.7,1.7c0,0.9-0.8,1.7-1.7,1.7c0,0,0,0,0,0
						C511.6,343.9,510.9,343.2,510.9,342.2C510.9,342.2,510.9,342.2,510.9,342.2z"/>
					<path class="st28" d="M510.6,332.5c1.1,0,1.9,0.9,1.9,1.9s-0.9,1.9-1.9,1.9s-1.9-0.9-1.9-1.9S509.6,332.5,510.6,332.5z"/>
					<path class="st28" d="M525.9,337.1c0-0.5,0.4-0.9,0.9-0.9c0.5,0,0.8,0.4,0.8,0.9c0,0.5-0.4,0.9-0.9,0.9l0,0
						C526.2,338,525.9,337.6,525.9,337.1z"/>
					<path class="st28" d="M521.2,327.2c0-1.3,1-2.3,2.3-2.3c1.3,0,2.3,1,2.3,2.3c0,1.3-1,2.3-2.3,2.3S521.2,328.5,521.2,327.2
						L521.2,327.2z"/>
					<path class="st28" d="M508.7,320c0-1.1,0.9-1.9,1.9-1.9c1.1,0,1.9,0.9,1.9,1.9s-0.9,1.9-1.9,1.9c0,0,0,0,0,0
						C509.6,321.9,508.7,321.1,508.7,320C508.7,320,508.7,320,508.7,320z"/>
					<path class="st28" d="M495.2,326c0-0.6,0.5-1.2,1.2-1.1c0.6,0,1.2,0.5,1.1,1.2c0,0.6-0.5,1.1-1.2,1.1
						C495.7,327.2,495.2,326.7,495.2,326C495.2,326,495.2,326,495.2,326z"/>
					<path class="st28" d="M556.2,348.4c0-1.3,1-2.3,2.3-2.4c1.3,0,2.3,1,2.3,2.3c0,1.3-1,2.3-2.3,2.3c0,0,0,0,0,0
						C557.3,350.7,556.2,349.7,556.2,348.4C556.2,348.4,556.2,348.4,556.2,348.4z"/>
					<path class="st28" d="M546,357.3c0-0.8,0.7-1.5,1.5-1.5s1.5,0.7,1.5,1.5s-0.7,1.5-1.5,1.5S546,358.1,546,357.3z"/>
					<path class="st28" d="M444.4,63.1c0-0.6,0.4-1,1-1s1,0.4,1,1s-0.4,1-1,1S444.4,63.7,444.4,63.1z"/>
					<path class="st28" d="M439.2,69.4c0-1,0.8-1.8,1.8-1.8c1,0,1.8,0.8,1.8,1.8c0,1-0.8,1.7-1.7,1.8
						C440,71.2,439.2,70.4,439.2,69.4C439.2,69.4,439.2,69.4,439.2,69.4z"/>
					<circle class="st28" cx="433.5" cy="59.6" r="0.9"/>
					<path class="st28" d="M426.1,65.8c0-1,0.8-1.8,1.8-1.8s1.8,0.8,1.8,1.8c0,1-0.8,1.8-1.8,1.8l0,0
						C426.9,67.6,426.1,66.8,426.1,65.8z"/>
					<path class="st28" d="M409.8,74.8c0-1,0.8-1.8,1.8-1.8s1.8,0.8,1.8,1.8c0,1-0.8,1.8-1.8,1.8l0,0
						C410.6,76.5,409.8,75.7,409.8,74.8C409.8,74.8,409.8,74.8,409.8,74.8z"/>
					<circle class="st28" cx="406.7" cy="55.6" r="3.1"/>
					<path class="st28" d="M391.6,62.6c0-0.3,0.2-0.5,0.5-0.5c0.3,0,0.5,0.2,0.5,0.5c0,0.3-0.2,0.5-0.5,0.5S391.6,62.9,391.6,62.6
						C391.6,62.6,391.6,62.6,391.6,62.6z"/>
					<path class="st28" d="M445.3,91c0-1,0.8-1.8,1.8-1.8S449,90,449,91s-0.8,1.8-1.8,1.8C446.1,92.8,445.3,92,445.3,91z"/>
					<circle class="st28" cx="432.5" cy="82.6" r="1.9"/>
				</g>
				<g class="st29">
					<path class="st28" d="M212.3,15c-0.2,0-0.4-0.2-0.4-0.4c0-0.2,0.2-0.5,0.4-0.5c0.2,0,0.5,0.2,0.5,0.4c0,0,0,0,0,0
						C212.7,14.8,212.5,15,212.3,15z"/>
					<circle class="st28" cx="213.3" cy="16.5" r="0.1"/>
					<path class="st28" d="M214.4,15.2c-0.1,0-0.1,0-0.1-0.1c0-0.1,0-0.1,0.1-0.1c0.1,0,0.1,0,0.1,0.1S214.4,15.2,214.4,15.2
						C214.4,15.2,214.4,15.2,214.4,15.2z"/>
					<path class="st28" d="M207.6,17c-0.1,0-0.1-0.1-0.1-0.1c0-0.1,0-0.1,0.1-0.1c0.1,0,0.1,0,0.1,0.1C207.7,17,207.7,17,207.6,17
						L207.6,17z"/>
					<path class="st28" d="M209.2,13.7C209.2,13.7,209.1,13.7,209.2,13.7c-0.1-0.1-0.1-0.2,0-0.2C209.3,13.6,209.3,13.6,209.2,13.7
						C209.3,13.6,209.3,13.6,209.2,13.7C209.3,13.7,209.3,13.7,209.2,13.7z"/>
					<circle class="st28" cx="210.4" cy="17.1" r="0.1"/>
					<path class="st28" d="M260.6,24.9c-0.4,0-0.7-0.3-0.7-0.7c0-0.4,0.3-0.7,0.7-0.7c0,0,0,0,0,0c0.4,0,0.7,0.3,0.7,0.7
						C261.3,24.6,261,24.9,260.6,24.9z"/>
					<path class="st28" d="M340.5,29.6c-0.3,0-0.6-0.3-0.6-0.6c0-0.3,0.3-0.6,0.6-0.6s0.6,0.3,0.6,0.6c0,0,0,0,0,0
						C341.1,29.3,340.9,29.6,340.5,29.6z"/>
					<circle class="st28" cx="341.4" cy="20.8" r="0.9"/>
					<path class="st28" d="M345.9,35.4c-0.5,0-0.9-0.4-0.9-0.9s0.4-0.9,0.9-0.9c0.5,0,0.9,0.4,0.9,0.9c0,0,0,0,0,0
						C346.8,34.9,346.4,35.4,345.9,35.4z"/>
					<circle class="st28" cx="383.8" cy="2.8" r="0.5"/>
					
						<ellipse transform="matrix(0.1597 -0.9872 0.9872 0.1597 342.2987 418.0759)" class="st28" cx="416.7" cy="8" rx="0.9" ry="0.9"/>
					<circle class="st28" cx="428.7" cy="2.3" r="0.7"/>
					<circle class="st28" cx="458.2" cy="17.6" r="0.5"/>
					<path class="st28" d="M560.3,115.9c-0.7-0.1-1.2-0.7-1.1-1.3c0.1-0.6,0.5-1.1,1.1-1.1c0.7-0.1,1.3,0.4,1.3,1.1
						c0.1,0.7-0.4,1.3-1.1,1.3C560.5,115.9,560.4,115.9,560.3,115.9z"/>
					<circle class="st28" cx="577.5" cy="89.6" r="0.8"/>
					<circle class="st28" cx="579.7" cy="105.8" r="1.3"/>
					<circle class="st28" cx="579.7" cy="45.9" r="1.3"/>
					<path class="st28" d="M604.8,55.8c-1.1,0-2.1-0.9-2.1-2c0-1.1,0.9-2.1,2-2.1c1.1,0,2.1,0.9,2.1,2c0,0,0,0,0,0
						C606.8,54.9,605.9,55.8,604.8,55.8z"/>
					<path class="st28" d="M609,7.3c-0.5,0-0.8-0.4-0.8-0.8c0-0.5,0.4-0.8,0.8-0.8c0.5,0,0.8,0.4,0.8,0.8S609.5,7.3,609,7.3
						C609,7.3,609,7.3,609,7.3z"/>
					<path class="st28" d="M522.6,13.9c-0.6,0-1.1-0.5-1.1-1.1s0.5-1.1,1.1-1.1c0.6,0,1.1,0.5,1.1,1.1c0,0,0,0,0,0
						C523.7,13.4,523.2,13.9,522.6,13.9z"/>
					<circle class="st28" cx="527.6" cy="70.3" r="1.4"/>
					<path class="st28" d="M638.8,40.9c-0.7,0-1.3-0.6-1.3-1.3s0.6-1.3,1.3-1.3c0.7,0,1.3,0.6,1.3,1.3l0,0
						C640.2,40.3,639.6,40.9,638.8,40.9z"/>
					<circle class="st28" cx="344.6" cy="485.6" r="1.6"/>
					<path class="st28" d="M342.3,478.1c0.7,0,1.2,0.6,1.2,1.2s-0.6,1.2-1.2,1.2c-0.7,0-1.2-0.6-1.2-1.2
						C341,478.6,341.6,478.1,342.3,478.1C342.3,478.1,342.3,478.1,342.3,478.1z"/>
					<path class="st28" d="M347.9,477c1,0,1.8,0.8,1.8,1.8s-0.8,1.8-1.8,1.8s-1.8-0.8-1.8-1.8l0,0C346.1,477.8,346.9,477,347.9,477z
						"/>
					<path class="st28" d="M358.9,488c0.5,0,0.9,0.4,0.9,1c0,0.5-0.4,0.9-1,0.9c-0.5,0-0.9-0.4-0.9-1c0,0,0,0,0,0
						C357.9,488.4,358.4,488,358.9,488C358.9,488,358.9,488,358.9,488z"/>
					<path class="st28" d="M345.4,454c0.4,0,0.8,0.3,0.8,0.8s-0.3,0.8-0.8,0.8s-0.8-0.3-0.8-0.8l0,0
						C344.6,454.3,344.9,454,345.4,454z"/>
					<circle class="st28" cx="354.7" cy="453.7" r="1.1"/>
					<path class="st28" d="M348.4,461.2c0.7,0.1,1.3,0.7,1.2,1.5c-0.1,0.6-0.6,1.2-1.2,1.2c-0.7,0.1-1.4-0.5-1.5-1.2
						c-0.1-0.7,0.5-1.4,1.2-1.5C348.2,461.2,348.3,461.2,348.4,461.2z"/>
					<path class="st28" d="M383.4,440.4c0.9,0,1.6,0.7,1.6,1.6c0,0.9-0.7,1.6-1.6,1.6c-0.9,0-1.6-0.7-1.6-1.6c0,0,0,0,0,0
						C381.8,441.1,382.5,440.4,383.4,440.4z"/>
					<circle class="st28" cx="378.3" cy="438.9" r="1.4"/>
					<path class="st28" d="M382.6,434.2c0.4,0,0.8,0.4,0.8,0.8s-0.4,0.8-0.8,0.8s-0.8-0.4-0.8-0.8c0,0,0,0,0,0
						C381.8,434.5,382.1,434.2,382.6,434.2z"/>
					<path class="st28" d="M461.4,222.9c0.9,0,1.6,0.7,1.6,1.6s-0.7,1.6-1.6,1.6c-0.9,0-1.6-0.7-1.6-1.6v0
						C459.8,223.7,460.5,222.9,461.4,222.9z"/>
					<path class="st28" d="M454.7,215c0.7-0.1,1.3,0.5,1.4,1.2c0.1,0.7-0.5,1.3-1.2,1.4c-0.1,0-0.2,0-0.2,0
						c-0.7-0.1-1.2-0.7-1.2-1.4C453.6,215.5,454,215.1,454.7,215z"/>
					<path class="st28" d="M464.6,213.2c0.9,0,1.6,0.7,1.6,1.5s-0.7,1.6-1.5,1.6s-1.6-0.7-1.6-1.5c0,0,0,0,0,0
						C463,213.9,463.7,213.2,464.6,213.2C464.6,213.2,464.6,213.2,464.6,213.2z"/>
					<path class="st28" d="M456,203.4c0.7,0,1.3,0.6,1.3,1.3c0,0.7-0.6,1.3-1.3,1.3c-0.7,0-1.3-0.6-1.3-1.3
						C454.7,204,455.3,203.4,456,203.4C456,203.4,456,203.4,456,203.4z"/>
					<path class="st28" d="M474.4,237.7c0.9,0,1.7,0.8,1.7,1.7c0,0.9-0.8,1.7-1.7,1.7s-1.7-0.8-1.7-1.7c0,0,0,0,0,0
						C472.7,238.5,473.4,237.7,474.4,237.7z"/>
					
						<ellipse transform="matrix(0.3827 -0.9239 0.9239 0.3827 130.083 562.3542)" class="st28" cx="485.9" cy="183.8" rx="2.9" ry="2.9"/>
					<circle class="st28" cx="327.2" cy="137.2" r="1.1"/>
					<path class="st28" d="M313.4,128.7c0.8,0,1.4,0.6,1.4,1.4s-0.6,1.4-1.4,1.4c-0.8,0-1.4-0.6-1.4-1.4S312.6,128.7,313.4,128.7
						L313.4,128.7z"/>
					<path class="st28" d="M324.8,126.1c0.7,0,1.3,0.6,1.3,1.3s-0.6,1.3-1.3,1.3c-0.7,0-1.3-0.6-1.3-1.3c0,0,0,0,0,0
						C323.5,126.7,324.1,126.1,324.8,126.1z"/>
					<path class="st28" d="M315.9,118.9c0.6,0,1.1,0.5,1.1,1.1c0,0.6-0.5,1.1-1.1,1.1c-0.6,0-1.1-0.5-1.1-1.1c0,0,0,0,0,0
						C314.8,119.4,315.3,118.9,315.9,118.9C315.9,118.9,315.9,118.9,315.9,118.9z"/>
					<path class="st28" d="M141.1,136.4c0.4,0,0.7,0.3,0.7,0.7c0,0.4-0.3,0.7-0.7,0.6c-0.4,0-0.6-0.3-0.6-0.6
						C140.4,136.7,140.7,136.4,141.1,136.4z"/>
					<circle class="st28" cx="138.6" cy="134.2" r="0.4"/>
					<path class="st28" d="M141.1,131.2c0.4,0,0.7,0.3,0.7,0.7c0,0.4-0.3,0.7-0.7,0.6c-0.4,0-0.6-0.3-0.6-0.6
						C140.4,131.5,140.7,131.2,141.1,131.2z"/>
					<path class="st28" d="M136.7,124.3c0.8,0,1.4,0.6,1.4,1.4c0,0.8-0.6,1.4-1.4,1.4c-0.8,0-1.4-0.6-1.4-1.4S136,124.3,136.7,124.3
						L136.7,124.3z"/>
					<path class="st28" d="M136,120.5c0.4,0,0.7,0.3,0.7,0.7s-0.3,0.7-0.7,0.7c-0.4,0-0.7-0.3-0.7-0.7S135.6,120.5,136,120.5
						L136,120.5z"/>
					<path class="st28" d="M140.4,120.7c0.8,0,1.4,0.6,1.4,1.4c0,0.8-0.6,1.4-1.4,1.4c-0.8,0-1.4-0.6-1.4-1.4c0,0,0,0,0,0
						C139,121.3,139.6,120.7,140.4,120.7z"/>
					<path class="st28" d="M136,113.5c0.4,0,0.7,0.3,0.7,0.7s-0.3,0.7-0.7,0.7c-0.4,0-0.7-0.3-0.7-0.7c0,0,0,0,0,0
						C135.3,113.8,135.6,113.5,136,113.5L136,113.5z"/>
					<path class="st28" d="M139.9,147.2c0.1,0,0.1,0.1,0.1,0.1c0,0.1-0.1,0.1-0.1,0.1c-0.1,0-0.1-0.1-0.1-0.1
						C139.7,147.2,139.8,147.2,139.9,147.2z"/>
					<path class="st28" d="M145.6,142.7c0.3,0,0.6,0.3,0.6,0.6c0,0,0,0,0,0c0,0.3-0.3,0.6-0.6,0.6c-0.3,0-0.6-0.3-0.6-0.6
						C144.9,143,145.2,142.7,145.6,142.7C145.6,142.7,145.6,142.7,145.6,142.7z"/>
					<path class="st28" d="M260,18.6c0.4,0,0.7,0.3,0.7,0.7c0,0.4-0.3,0.7-0.7,0.7c-0.4,0-0.7-0.3-0.7-0.7c0,0,0,0,0,0
						C259.3,18.9,259.7,18.6,260,18.6z"/>
					<path class="st28" d="M254.8,18.6c0.4,0,0.7,0.3,0.7,0.7c0,0.4-0.3,0.7-0.7,0.7c-0.4,0-0.7-0.3-0.7-0.7c0,0,0,0,0,0
						C254.1,18.9,254.4,18.6,254.8,18.6C254.8,18.6,254.8,18.6,254.8,18.6z"/>
					<circle class="st28" cx="251.4" cy="15.2" r="1"/>
					<path class="st28" d="M255.6,13.4c0.5,0,0.9,0.4,0.9,0.9s-0.4,0.9-0.9,0.9c-0.5,0-0.9-0.4-0.9-0.9l0,0
						C254.8,13.8,255.1,13.4,255.6,13.4C255.6,13.4,255.6,13.4,255.6,13.4z"/>
					<path class="st28" d="M224.5,7.4c0.4,0,0.7,0.3,0.7,0.7c0,0.4-0.3,0.7-0.7,0.7c-0.4,0-0.7-0.3-0.7-0.7
						C223.8,7.7,224.1,7.4,224.5,7.4L224.5,7.4z"/>
					<path class="st28" d="M115.3,239c0.4,0,0.7,0.3,0.7,0.6c0,0.4-0.3,0.7-0.7,0.7c-0.4,0-0.7-0.3-0.7-0.7
						C114.6,239.3,114.9,239,115.3,239z"/>
					<path class="st28" d="M112.6,234.2c0.3,0,0.6,0.3,0.6,0.6c0,0.3-0.3,0.6-0.6,0.6c-0.3,0-0.6-0.3-0.6-0.6
						S112.3,234.2,112.6,234.2L112.6,234.2z"/>
					<path class="st28" d="M116.9,232.2c0.6,0,1,0.4,1,1s-0.4,1-1,1s-1-0.4-1-1S116.4,232.2,116.9,232.2z"/>
					<circle class="st28" cx="113.3" cy="224.2" r="1.3"/>
					<path class="st28" d="M114.2,256.3c0.9,0,1.6,0.7,1.6,1.6c0,0.9-0.7,1.6-1.6,1.6c-0.9,0-1.6-0.7-1.6-1.6
						S113.3,256.3,114.2,256.3C114.2,256.3,114.2,256.3,114.2,256.3z"/>
					<circle class="st28" cx="124.4" cy="242.2" r="1"/>
					<circle class="st28" cx="126.7" cy="229.1" r="1.3"/>
					<path class="st28" d="M122.5,221.1c0.5,0,0.9,0.4,0.9,0.9c0,0.5-0.4,0.9-0.9,0.9s-0.9-0.4-0.9-0.9c0,0,0,0,0,0
						C121.6,221.5,122,221.1,122.5,221.1z"/>
					<circle class="st28" cx="112.7" cy="198.1" r="0.6"/>
					<path class="st28" d="M133.1,201.5c0.4,0,0.8,0.4,0.8,0.8c0,0.4-0.4,0.8-0.8,0.8c-0.4,0-0.8-0.4-0.8-0.8
						C132.3,201.9,132.7,201.5,133.1,201.5L133.1,201.5z"/>
					<path class="st28" d="M124.9,191.9c0.3,0,0.5,0.2,0.5,0.5c0,0.3-0.2,0.5-0.5,0.5c-0.3,0-0.5-0.2-0.5-0.5l0,0
						C124.4,192.1,124.6,191.9,124.9,191.9z"/>
					<path class="st28" d="M140.4,240.8c0.4,0,0.7,0.3,0.7,0.7s-0.3,0.7-0.7,0.7s-0.7-0.3-0.7-0.7S140,240.8,140.4,240.8
						L140.4,240.8z"/>
					<path class="st28" d="M263.8,64.5c0.7,0,1.3,0.6,1.3,1.3c0,0.7-0.6,1.3-1.3,1.3c-0.7,0-1.3-0.6-1.3-1.3c0,0,0,0,0,0
						C262.5,65.1,263.1,64.5,263.8,64.5L263.8,64.5z"/>
					<circle class="st28" cx="258.2" cy="63.3" r="1.1"/>
					<path class="st28" d="M263.8,59.5c0.7,0,1.3,0.6,1.3,1.3c0,0.7-0.6,1.3-1.3,1.3c-0.7,0-1.3-0.6-1.3-1.3c0,0,0,0,0,0
						C262.5,60.1,263.1,59.5,263.8,59.5L263.8,59.5z"/>
					<path class="st28" d="M255.6,53.5c0.8,0,1.5,0.7,1.5,1.5s-0.7,1.5-1.5,1.5c-0.8,0-1.5-0.7-1.5-1.5c0,0,0,0,0-0.1
						C254.1,54.2,254.7,53.6,255.6,53.5z"/>
					<path class="st28" d="M243,64.5c0.4,0,0.7,0.3,0.7,0.7c0,0.4-0.3,0.7-0.7,0.7c-0.4,0-0.7-0.3-0.7-0.7
						C242.3,64.8,242.6,64.5,243,64.5L243,64.5z"/>
					<path class="st28" d="M267.8,39.5c1.5,0,2.7,1.2,2.7,2.7s-1.2,2.7-2.7,2.7c-1.5,0-2.7-1.2-2.7-2.7
						C265.1,40.7,266.3,39.5,267.8,39.5z"/>
					<path class="st28" d="M309.3,67.1c0.7,0,1.2,0.6,1.2,1.3c0,0.7-0.6,1.2-1.3,1.2c-0.7,0-1.2-0.6-1.2-1.2
						C308,67.7,308.6,67.1,309.3,67.1C309.2,67.1,309.2,67.1,309.3,67.1z"/>
					<path class="st28" d="M211.7,98.9c1,0,1.8,0.8,1.8,1.8c0,1-0.8,1.8-1.8,1.8c-1,0-1.8-0.8-1.8-1.8
						C209.9,99.7,210.7,98.9,211.7,98.9C211.7,98.9,211.7,98.9,211.7,98.9z"/>
					<circle class="st28" cx="206.1" cy="95.6" r="1.1"/>
					<circle class="st28" cx="212.6" cy="92.4" r="0.9"/>
					<circle class="st28" cx="203.9" cy="84.4" r="1.1"/>
					<path class="st28" d="M192.3,83.4c0.6,0,1.1,0.5,1.1,1.1s-0.5,1.1-1.1,1.1c-0.6,0-1.1-0.5-1.1-1.1c0,0,0,0,0,0
						C191.2,83.8,191.7,83.4,192.3,83.4z"/>
					<path class="st28" d="M197.5,77.9c0.7,0,1.3,0.6,1.3,1.3c0,0.7-0.6,1.3-1.3,1.3c-0.7,0-1.3-0.6-1.3-1.3c0,0,0,0,0,0
						C196.1,78.5,196.7,77.9,197.5,77.9C197.5,77.9,197.5,77.9,197.5,77.9z"/>
					<circle class="st28" cx="264.2" cy="470.6" r="1.7"/>
					<circle class="st28" cx="272" cy="468.7" r="1.9"/>
					<path class="st28" d="M269.3,484c0.5,0,0.9,0.4,0.9,0.9c0,0.5-0.4,0.9-0.9,0.9c-0.5,0-0.9-0.4-0.9-0.9S268.8,484,269.3,484
						L269.3,484z"/>
					<path class="st28" d="M279.2,479.3c1.3,0,2.3,1,2.3,2.3c0,1.3-1,2.3-2.3,2.3c-1.3,0-2.3-1-2.3-2.3
						C276.9,480.3,277.9,479.3,279.2,479.3C279.2,479.3,279.2,479.3,279.2,479.3z"/>
					<path class="st28" d="M286.4,466.8c1.1,0,1.9,0.9,1.9,1.9c0,1.1-0.9,1.9-1.9,1.9c-1.1,0-1.9-0.9-1.9-1.9c0,0,0,0,0,0
						C284.5,467.7,285.4,466.8,286.4,466.8C286.4,466.8,286.4,466.8,286.4,466.8z"/>
					<path class="st28" d="M280.4,453.3c0.6,0,1.2,0.5,1.2,1.2s-0.5,1.2-1.2,1.2s-1.2-0.5-1.2-1.2S279.7,453.3,280.4,453.3
						L280.4,453.3z"/>
					<path class="st28" d="M543.3,402.5c0.6,0,1,0.4,1,1s-0.4,1-1,1s-1-0.4-1-1S542.7,402.5,543.3,402.5z"/>
					<path class="st28" d="M537,397.3c1,0,1.8,0.8,1.8,1.8s-0.8,1.8-1.8,1.8c-1,0-1.8-0.8-1.8-1.8S536,397.3,537,397.3L537,397.3z"
						/>
					<path class="st28" d="M546.8,390.7c0.5,0,0.9,0.4,0.9,0.9c0,0.5-0.4,0.9-0.9,0.9c-0.5,0-0.9-0.4-0.9-0.9
						C545.9,391.1,546.3,390.7,546.8,390.7L546.8,390.7z"/>
					<path class="st28" d="M540.5,384.2c1,0,1.8,0.8,1.8,1.8s-0.8,1.8-1.8,1.8c-1,0-1.8-0.8-1.8-1.8S539.6,384.2,540.5,384.2
						L540.5,384.2z"/>
					<path class="st28" d="M531.7,367.9c1,0,1.8,0.8,1.8,1.8s-0.8,1.8-1.8,1.8c-1,0-1.8-0.8-1.8-1.8S530.7,367.9,531.7,367.9
						L531.7,367.9z"/>
					<circle class="st28" cx="550.8" cy="364.8" r="3.1"/>
					<path class="st28" d="M543.8,349.7c0.3,0,0.5,0.2,0.5,0.5s-0.2,0.5-0.5,0.5s-0.5-0.2-0.5-0.5S543.5,349.7,543.8,349.7z"/>
					<path class="st28" d="M515.4,403.4c1,0,1.8,0.8,1.8,1.8s-0.8,1.8-1.8,1.8c-1,0-1.8-0.8-1.8-1.8S514.4,403.4,515.4,403.4
						L515.4,403.4z"/>
					<circle class="st28" cx="523.8" cy="390.6" r="1.9"/>
				</g>
				<g>
					<path class="st28" d="M706.5,77.6c0-0.3,0.2-0.5,0.5-0.4c0.3,0,0.4,0.3,0.4,0.5c0,0.2-0.2,0.4-0.4,0.4
						C706.7,78.1,706.5,77.9,706.5,77.6C706.5,77.6,706.5,77.6,706.5,77.6z"/>
					<path class="st28" d="M705,78.7C705,78.6,705,78.6,705,78.7c0.2-0.1,0.2-0.1,0.2,0c0,0.1,0,0.1-0.1,0.1
						C705,78.8,705,78.8,705,78.7C705,78.7,705,78.7,705,78.7z"/>
					<path class="st28" d="M706.3,79.8C706.3,79.7,706.3,79.7,706.3,79.8c0.1-0.1,0.2-0.1,0.2,0C706.5,79.8,706.4,79.9,706.3,79.8
						C706.4,79.9,706.4,79.9,706.3,79.8C706.3,79.9,706.3,79.8,706.3,79.8z"/>
					<path class="st28" d="M704.6,73c0-0.1,0-0.1,0.1-0.1c0.1,0,0.1,0,0.1,0.1s0,0.1-0.1,0.1C704.6,73.1,704.6,73.1,704.6,73z"/>
					<path class="st28" d="M707.8,74.6C707.8,74.6,707.8,74.5,707.8,74.6c0.1-0.1,0.2,0,0.2,0C708,74.7,707.9,74.7,707.8,74.6
						C707.8,74.7,707.8,74.7,707.8,74.6C707.8,74.6,707.8,74.6,707.8,74.6z"/>
					<circle class="st28" cx="704.5" cy="75.8" r="0.1"/>
					<path class="st28" d="M734.4,102.9c0-0.4,0.3-0.7,0.7-0.7c0.4,0,0.7,0.3,0.7,0.7s-0.3,0.7-0.7,0.7l0,0
						C734.7,103.6,734.4,103.3,734.4,102.9z"/>
					<path class="st28" d="M742.6,101.5c0-0.3,0.3-0.6,0.6-0.6c0.3,0,0.6,0.3,0.6,0.6c0,0.3-0.3,0.6-0.6,0.6
						C742.8,102.2,742.6,101.9,742.6,101.5z"/>
					<path class="st28" d="M735.1,98.5c0-0.2,0.2-0.4,0.4-0.4c0.2,0,0.4,0.2,0.4,0.4s-0.2,0.4-0.4,0.4l0,0
						C735.3,98.9,735.1,98.7,735.1,98.5z"/>
					<path class="st28" d="M696.6,126c0-0.4,0.3-0.7,0.7-0.7c0.4,0,0.7,0.3,0.7,0.7c0,0.4-0.3,0.7-0.7,0.7S696.6,126.4,696.6,126
						C696.6,126,696.6,126,696.6,126z"/>
					<path class="st28" d="M691.9,205.9c0-0.3,0.3-0.6,0.6-0.6c0.3,0,0.6,0.3,0.6,0.6c0,0,0,0,0,0c0,0.3-0.3,0.6-0.6,0.6
						C692.2,206.5,691.9,206.2,691.9,205.9C691.9,205.9,691.9,205.9,691.9,205.9z"/>
					<path class="st28" d="M699.9,206.8c0-0.5,0.4-0.8,0.9-0.8c0.5,0,0.8,0.4,0.8,0.9c0,0.5-0.4,0.8-0.9,0.8l0,0
						C700.3,207.6,699.9,207.2,699.9,206.8z"/>
					<path class="st28" d="M686.2,211.3c0-0.5,0.4-0.9,0.9-0.9s0.9,0.4,0.9,0.9c0,0.5-0.4,0.9-0.9,0.9c0,0,0,0,0,0
						C686.6,212.2,686.2,211.8,686.2,211.3z"/>
					<path class="st28" d="M727.7,243c0-0.4,0.3-0.7,0.7-0.7c0.4,0,0.7,0.3,0.7,0.7s-0.3,0.7-0.7,0.7l0,0
						C728,243.7,727.7,243.4,727.7,243z"/>
					<circle class="st28" cx="718.7" cy="249.2" r="0.5"/>
					<path class="st28" d="M736.5,253.1c0-0.4,0.3-0.7,0.7-0.7c0.4,0,0.7,0.3,0.7,0.7s-0.3,0.7-0.7,0.7l0,0
						C736.8,253.8,736.5,253.5,736.5,253.1z"/>
					<circle class="st28" cx="713.5" cy="282.1" r="0.9"/>
					<circle class="st28" cx="730.5" cy="286.2" r="0.8"/>
					<circle class="st28" cx="719.3" cy="294.1" r="0.7"/>
					<circle class="st28" cx="726.3" cy="274.6" r="0.5"/>
					<path class="st28" d="M741,279.5c0-0.3,0.2-0.5,0.5-0.5c0.3,0,0.5,0.2,0.5,0.5c0,0.3-0.2,0.5-0.5,0.5c0,0,0,0,0,0
						C741.2,280,741,279.8,741,279.5z"/>
					<path class="st28" d="M727.5,323.6c0-0.3,0.2-0.5,0.5-0.5c0.3,0,0.5,0.2,0.5,0.5c0,0.3-0.2,0.5-0.5,0.5c0,0,0,0,0,0
						C727.7,324,727.5,323.8,727.5,323.6z"/>
					<circle class="st28" cx="703.9" cy="323.6" r="0.5"/>
					<path class="st28" d="M605.6,425.7c0-0.7,0.5-1.2,1.2-1.2c0.7,0,1.2,0.5,1.2,1.2c0,0.7-0.5,1.2-1.2,1.2c0,0,0,0,0,0
						C606.2,426.9,605.6,426.4,605.6,425.7C605.6,425.7,605.6,425.7,605.6,425.7z"/>
					<circle class="st28" cx="631.9" cy="443" r="0.8"/>
					<circle class="st28" cx="615.7" cy="445.1" r="1.3"/>
					<circle class="st28" cx="675.6" cy="445.1" r="1.3"/>
					<path class="st28" d="M665.7,470.2c0-1.1,0.9-2.1,2.1-2.1s2.1,0.9,2.1,2.1c0,1.1-0.9,2.1-2.1,2.1l0,0
						C666.6,472.2,665.7,471.3,665.7,470.2z"/>
					<path class="st28" d="M714.2,474.4c0-0.5,0.4-0.9,0.8-0.9c0.5,0,0.9,0.4,0.9,0.8c0,0.5-0.4,0.9-0.8,0.9c0,0,0,0,0,0
						C714.6,475.2,714.2,474.9,714.2,474.4z"/>
					<path class="st28" d="M724.5,407.8c0-0.8,0.7-1.5,1.5-1.5c0.8,0,1.5,0.7,1.5,1.5c0,0.8-0.7,1.5-1.5,1.5
						S724.5,408.7,724.5,407.8C724.5,407.8,724.5,407.8,724.5,407.8z"/>
					<path class="st28" d="M707.6,388c0-0.6,0.5-1.1,1.1-1.1s1.1,0.5,1.1,1.1c0,0.6-0.5,1.1-1.1,1.1c0,0,0,0,0,0
						C708.1,389.1,707.6,388.6,707.6,388z"/>
					<circle class="st28" cx="651.2" cy="393" r="1.4"/>
					<circle class="st28" cx="40.1" cy="403.1" r="0.5"/>
					<circle class="st28" cx="42" cy="402.1" r="0.1"/>
					<path class="st28" d="M40.7,401c0,0.1,0,0.1-0.1,0.1h0c-0.1,0-0.1,0-0.1-0.1s0-0.1,0.1-0.1C40.7,400.9,40.7,400.9,40.7,401
						L40.7,401z"/>
					<circle class="st28" cx="42.3" cy="407.8" r="0.1"/>
					<path class="st28" d="M39.2,406.2C39.2,406.2,39.2,406.3,39.2,406.2c-0.1,0.1-0.2,0-0.2,0C39,406.1,39.1,406.1,39.2,406.2
						L39.2,406.2C39.2,406.1,39.2,406.1,39.2,406.2z"/>
					<circle class="st28" cx="42.5" cy="405" r="0.1"/>
					<path class="st28" d="M12.6,377.9c0,0.4-0.3,0.7-0.7,0.7c-0.4,0-0.7-0.3-0.7-0.7c0-0.4,0.3-0.7,0.7-0.7S12.6,377.5,12.6,377.9
						C12.6,377.9,12.6,377.9,12.6,377.9z"/>
					<path class="st28" d="M4.4,379.3c0,0.3-0.3,0.6-0.6,0.6c-0.3,0-0.6-0.3-0.6-0.6c0-0.3,0.3-0.6,0.6-0.6
						C4.2,378.6,4.4,378.9,4.4,379.3z"/>
					<circle class="st28" cx="11.6" cy="382.3" r="0.4"/>
					<path class="st28" d="M50.4,354.8c0,0.4-0.3,0.7-0.7,0.7c-0.4,0-0.7-0.3-0.7-0.7s0.3-0.7,0.7-0.7c0,0,0,0,0,0
						C50.1,354.1,50.4,354.4,50.4,354.8z"/>
					<path class="st28" d="M55.1,274.9c0,0.3-0.3,0.6-0.6,0.6c-0.3,0-0.6-0.3-0.6-0.6c0-0.3,0.3-0.6,0.6-0.6c0,0,0,0,0,0
						C54.8,274.3,55.1,274.5,55.1,274.9C55.1,274.9,55.1,274.9,55.1,274.9z"/>
					<circle class="st28" cx="46.2" cy="274" r="0.9"/>
					<path class="st28" d="M60.8,269.5c0,0.5-0.4,0.9-0.9,0.9S59,270,59,269.5c0-0.5,0.4-0.9,0.9-0.9
						C60.4,268.6,60.8,269,60.8,269.5L60.8,269.5z"/>
					<circle class="st28" cx="18.6" cy="237.8" r="0.7"/>
					<path class="st28" d="M28.8,231.6c0,0.3-0.2,0.5-0.5,0.5s-0.5-0.2-0.5-0.5c0-0.3,0.2-0.5,0.5-0.5
						C28.6,231.1,28.8,231.4,28.8,231.6L28.8,231.6z"/>
					<path class="st28" d="M10.5,227.7c0,0.4-0.3,0.7-0.7,0.7s-0.7-0.3-0.7-0.7c0-0.4,0.3-0.7,0.7-0.7
						C10.2,226.9,10.5,227.3,10.5,227.7L10.5,227.7z"/>
					<circle class="st28" cx="33.5" cy="198.6" r="0.9"/>
					<circle class="st28" cx="16.6" cy="194.6" r="0.8"/>
					<path class="st28" d="M28.5,186.7c0,0.4-0.3,0.7-0.7,0.7s-0.7-0.3-0.7-0.7c0-0.4,0.3-0.7,0.7-0.7
						C28.2,185.9,28.5,186.3,28.5,186.7L28.5,186.7z"/>
					<circle class="st28" cx="20.7" cy="206.2" r="0.5"/>
					<path class="st28" d="M6,201.3c0,0.3-0.2,0.5-0.5,0.5c0,0,0,0,0,0c-0.3,0-0.5-0.2-0.5-0.5c0-0.3,0.2-0.5,0.5-0.5c0,0,0,0,0,0
						C5.8,200.8,6,201,6,201.3C6,201.3,6,201.3,6,201.3z"/>
					<circle class="st28" cx="19" cy="157.2" r="0.5"/>
					<path class="st28" d="M43.6,157.2c0,0.3-0.2,0.5-0.5,0.5c0,0,0,0,0,0c-0.3,0-0.5-0.2-0.5-0.5s0.2-0.5,0.5-0.5
						C43.4,156.7,43.6,156.9,43.6,157.2C43.6,157.2,43.6,157.2,43.6,157.2z"/>
					<path class="st28" d="M141.4,55.1c0,0.7-0.5,1.2-1.2,1.2s-1.2-0.5-1.2-1.2c0-0.7,0.5-1.2,1.2-1.2c0,0,0,0,0,0
						C140.8,53.8,141.4,54.4,141.4,55.1z"/>
					<circle class="st28" cx="115.1" cy="37.8" r="0.8"/>
					<path class="st28" d="M132.6,35.7c0,0.7-0.6,1.3-1.3,1.3s-1.3-0.6-1.3-1.3c0-0.7,0.6-1.3,1.3-1.3l0,0
						C132,34.4,132.6,35,132.6,35.7z"/>
					<path class="st28" d="M72.7,35.7c0,0.7-0.6,1.3-1.3,1.3c-0.7,0-1.3-0.6-1.3-1.3c0-0.7,0.6-1.3,1.3-1.3l0,0
						C72.1,34.4,72.7,35,72.7,35.7z"/>
					<path class="st28" d="M81.3,10.6c0,1.1-0.9,2.1-2.1,2.1c-1.1,0-2.1-0.9-2.1-2.1c0-1.1,0.9-2.1,2.1-2.1c0,0,0,0,0.1,0
						C80.4,8.6,81.3,9.5,81.3,10.6z"/>
					<circle class="st28" cx="32" cy="6.4" r="0.8"/>
					<path class="st28" d="M22.5,73c0,0.8-0.7,1.5-1.6,1.5c-0.8,0-1.5-0.7-1.5-1.6c0-0.8,0.7-1.4,1.5-1.5
						C21.8,71.4,22.5,72.1,22.5,73C22.5,73,22.5,73,22.5,73z"/>
					<path class="st28" d="M39.4,92.8c0,0.6-0.5,1.1-1.1,1.1c-0.6,0-1.1-0.5-1.1-1.1c0-0.6,0.5-1.1,1.1-1.1c0,0,0,0,0,0
						C38.9,91.7,39.4,92.2,39.4,92.8z"/>
					<circle class="st28" cx="95.8" cy="87.8" r="1.4"/>
					<circle class="st28" cx="235.9" cy="210" r="1.6"/>
					<path class="st28" d="M243.4,207.6c0,0.7-0.5,1.2-1.2,1.2c-0.7,0-1.2-0.5-1.2-1.2c0-0.7,0.5-1.2,1.2-1.2c0,0,0,0,0,0
						C242.9,206.4,243.4,207,243.4,207.6z"/>
					<path class="st28" d="M244.6,213.3c0,1-0.8,1.8-1.8,1.8s-1.8-0.8-1.8-1.8s0.8-1.8,1.8-1.8l0,0
						C243.8,211.5,244.6,212.3,244.6,213.3z"/>
					<path class="st28" d="M220.5,212.4c0,0.5-0.4,0.9-0.9,0.9s-0.9-0.4-0.9-0.9s0.4-0.9,0.9-0.9c0,0,0,0,0,0
						C220.1,211.5,220.5,211.9,220.5,212.4z"/>
					<path class="st28" d="M233.6,224.3c0,0.5-0.4,0.9-1,0.9s-0.9-0.4-0.9-1c0-0.5,0.4-0.9,0.9-0.9
						C233.1,223.3,233.5,223.7,233.6,224.3z"/>
					<path class="st28" d="M267.5,210.8c0,0.4-0.3,0.8-0.8,0.8s-0.8-0.3-0.8-0.8s0.3-0.8,0.8-0.8l0,0
						C267.1,210,267.5,210.3,267.5,210.8z"/>
					<circle class="st28" cx="267.8" cy="220.1" r="1.1"/>
					<path class="st28" d="M260.4,213.8c0,0.7-0.6,1.3-1.3,1.3c-0.7,0-1.3-0.6-1.3-1.3c0-0.7,0.6-1.3,1.3-1.3c0,0,0,0,0,0
						C259.8,212.4,260.4,213,260.4,213.8z"/>
					<path class="st28" d="M281.2,248.8c0,0.9-0.7,1.6-1.6,1.6c-0.9,0-1.6-0.7-1.6-1.6c0-0.9,0.7-1.6,1.6-1.6c0,0,0,0,0,0
						C280.5,247.2,281.2,247.9,281.2,248.8z"/>
					<circle class="st28" cx="282.6" cy="243.7" r="1.4"/>
					<path class="st28" d="M287.4,248c0,0.4-0.4,0.8-0.8,0.8s-0.8-0.4-0.8-0.8c0-0.4,0.4-0.8,0.8-0.8l0,0
						C287,247.2,287.4,247.5,287.4,248C287.4,248,287.4,248,287.4,248z"/>
					<path class="st28" d="M498.6,326.8c0,0.9-0.7,1.6-1.6,1.6s-1.6-0.7-1.6-1.6s0.7-1.6,1.6-1.6c0,0,0,0,0,0
						C497.9,325.2,498.6,325.9,498.6,326.8C498.6,326.8,498.6,326.8,498.6,326.8z"/>
					<path class="st28" d="M506.5,320.1c-0.1,0.7-0.7,1.2-1.4,1.2c-0.6-0.1-1.1-0.5-1.2-1.2c-0.1-0.7,0.5-1.3,1.2-1.4
						c0.7-0.1,1.3,0.5,1.4,1.2C506.5,319.9,506.5,320,506.5,320.1z"/>
					<path class="st28" d="M508.3,330c0,0.9-0.7,1.5-1.6,1.5s-1.5-0.7-1.5-1.6c0-0.9,0.7-1.5,1.5-1.5
						C507.6,328.4,508.3,329.1,508.3,330C508.3,330,508.3,330,508.3,330z"/>
					<path class="st28" d="M518.1,321.4c0,0.7-0.6,1.3-1.3,1.3c-0.7,0-1.3-0.6-1.3-1.3c0-0.7,0.6-1.3,1.3-1.3c0,0,0,0,0,0
						C517.5,320.1,518.1,320.6,518.1,321.4L518.1,321.4z"/>
					<path class="st28" d="M483.8,339.8c0,0.9-0.8,1.7-1.7,1.7s-1.7-0.8-1.7-1.7c0-0.9,0.8-1.7,1.7-1.7c0,0,0,0,0,0
						C483,338.1,483.8,338.8,483.8,339.8z"/>
					<circle class="st28" cx="537.7" cy="351.2" r="2.9"/>
					<circle class="st28" cx="584.3" cy="192.6" r="1.1"/>
					<path class="st28" d="M592.9,178.8c0,0.8-0.6,1.4-1.4,1.4s-1.4-0.6-1.4-1.4c0-0.8,0.6-1.4,1.4-1.4c0,0,0,0,0,0
						C592.2,177.4,592.9,178,592.9,178.8z"/>
					<path class="st28" d="M595.4,190.2c0,0.7-0.6,1.3-1.3,1.3c-0.7,0-1.3-0.6-1.3-1.3s0.6-1.3,1.3-1.3l0,0
						C594.9,188.9,595.4,189.5,595.4,190.2C595.4,190.2,595.4,190.2,595.4,190.2z"/>
					<path class="st28" d="M602.6,181.3c0.1,0.6-0.4,1.2-1,1.2c-0.6,0.1-1.2-0.4-1.2-1c0-0.1,0-0.1,0-0.2c0.1-0.6,0.6-1.1,1.2-1
						C602.1,180.3,602.6,180.7,602.6,181.3z"/>
					<path class="st28" d="M585.1,6.5c0,0.4-0.4,0.6-0.7,0.6c-0.3,0-0.5-0.3-0.6-0.6c0-0.4,0.2-0.7,0.6-0.7s0.7,0.2,0.7,0.6
						C585.1,6.4,585.1,6.4,585.1,6.5z"/>
					<circle class="st28" cx="587.3" cy="3.9" r="0.4"/>
					<path class="st28" d="M590.3,6.5c0,0.4-0.3,0.7-0.7,0.7l0,0c-0.4,0-0.7-0.3-0.7-0.7c0-0.4,0.3-0.7,0.7-0.7
						C590.1,5.8,590.4,6.1,590.3,6.5z"/>
					<path class="st28" d="M597.2,2.1c0,0.8-0.6,1.4-1.4,1.4s-1.4-0.6-1.4-1.4c0-0.8,0.6-1.4,1.4-1.4S597.2,1.4,597.2,2.1
						C597.2,2.1,597.2,2.1,597.2,2.1z"/>
					<path class="st28" d="M601,1.4c0,0.4-0.3,0.7-0.7,0.7s-0.7-0.3-0.7-0.7c0-0.4,0.3-0.7,0.7-0.7S601,1.1,601,1.4
						C601,1.4,601,1.4,601,1.4z"/>
					<path class="st28" d="M600.8,5.8c0,0.8-0.6,1.4-1.4,1.4c-0.8,0-1.4-0.6-1.4-1.4c0-0.8,0.6-1.4,1.4-1.4c0,0,0,0,0,0
						C600.2,4.4,600.8,5,600.8,5.8C600.8,5.8,600.8,5.8,600.8,5.8z"/>
					<path class="st28" d="M608,1.4c0,0.4-0.3,0.7-0.7,0.7s-0.7-0.3-0.7-0.7c0-0.4,0.3-0.7,0.7-0.7S608,1.1,608,1.4
						C608,1.4,608,1.4,608,1.4z"/>
					<path class="st28" d="M574.4,5.3c0,0.1-0.1,0.2-0.1,0.2c-0.1,0-0.2-0.1-0.2-0.1c0,0,0,0,0,0c0-0.1,0.1-0.1,0.2-0.1
						C574.3,5.1,574.4,5.2,574.4,5.3z"/>
					<path class="st28" d="M578.8,11c0,0.3-0.3,0.6-0.6,0.6s-0.6-0.3-0.6-0.6s0.3-0.6,0.6-0.6l0,0C578.5,10.4,578.8,10.6,578.8,11
						C578.8,11,578.8,11,578.8,11z"/>
					<path class="st28" d="M703,125.4c0,0.4-0.3,0.7-0.7,0.7s-0.7-0.3-0.7-0.7s0.3-0.7,0.7-0.7S703,125.1,703,125.4L703,125.4z"/>
					<path class="st28" d="M703,120.2c0,0.4-0.3,0.7-0.7,0.7s-0.7-0.3-0.7-0.7s0.3-0.7,0.7-0.7S703,119.8,703,120.2L703,120.2z"/>
					<circle class="st28" cx="706.3" cy="116.8" r="1"/>
					<path class="st28" d="M708.1,121c0,0.5-0.4,0.9-0.9,0.9c-0.5,0-0.9-0.4-0.9-0.9c0-0.5,0.4-0.9,0.9-0.9c0,0,0,0,0,0
						C707.7,120.1,708.1,120.5,708.1,121C708.1,121,708.1,121,708.1,121z"/>
					<path class="st28" d="M735.4,89.9c0,0.4-0.4,0.6-0.7,0.6c-0.3,0-0.5-0.3-0.6-0.6c0-0.4,0.4-0.6,0.7-0.6
						C735.1,89.3,735.4,89.6,735.4,89.9z"/>
					<path class="st28" d="M743.8,89.6c0,0.2-0.1,0.3-0.3,0.3c-0.2,0-0.3-0.1-0.3-0.3c0,0,0,0,0,0c0-0.2,0.1-0.3,0.3-0.3
						C743.7,89.2,743.8,89.4,743.8,89.6C743.8,89.5,743.8,89.5,743.8,89.6z"/>
					<path class="st28" d="M714.1,89.9c0,0.4-0.3,0.7-0.7,0.7c-0.4,0-0.7-0.3-0.7-0.7s0.3-0.7,0.7-0.7l0,0
						C713.8,89.2,714.1,89.5,714.1,89.9z"/>
					<path class="st28" d="M746.2,112.7c0,0.7-0.5,1.2-1.2,1.2c-0.7,0-1.2-0.5-1.2-1.2s0.5-1.2,1.2-1.2S746.2,112.1,746.2,112.7
						L746.2,112.7z"/>
					<path class="st28" d="M742.7,158.7c0,0.6-0.5,1.1-1.1,1.1s-1.1-0.5-1.1-1.1s0.5-1.1,1.1-1.1S742.7,158.1,742.7,158.7
						L742.7,158.7z"/>
					<path class="st28" d="M745,155.1c0,0.3-0.3,0.6-0.6,0.6c-0.3,0-0.6-0.3-0.6-0.6s0.3-0.6,0.6-0.6l0,0
						C744.7,154.5,745,154.7,745,155.1C745,155.1,745,155.1,745,155.1z"/>
					<path class="st28" d="M730.5,159.9c0,0.7-0.5,1.2-1.2,1.2c-0.7,0-1.2-0.5-1.2-1.2c0-0.7,0.5-1.2,1.2-1.2
						C730,158.7,730.5,159.2,730.5,159.9C730.5,159.9,730.5,159.9,730.5,159.9z"/>
					<path class="st28" d="M735.6,168.3c0,0.5-0.4,0.9-0.9,0.9c-0.5,0-0.9-0.4-0.9-0.9c0-0.5,0.4-0.9,0.9-0.9l0,0
						C735.2,167.4,735.6,167.8,735.6,168.3z"/>
					<path class="st28" d="M743.4,164c0,0.5-0.4,0.9-0.9,0.9c-0.5,0-0.9-0.4-0.9-0.9c0-0.5,0.4-0.9,0.9-0.9l0,0
						C743,163.1,743.4,163.5,743.4,164C743.4,164,743.4,164,743.4,164z"/>
					<path class="st28" d="M743.8,217.3c0,0.3-0.3,0.6-0.6,0.6s-0.6-0.3-0.6-0.6s0.3-0.6,0.6-0.6S743.8,217,743.8,217.3L743.8,217.3
						z"/>
					<path class="st28" d="M67.1,277.8c0,0.6-0.4,1-1,1s-1-0.4-1-1s0.4-1,1-1S67.1,277.3,67.1,277.8z"/>
					<path class="st28" d="M68.9,271.8c0,0.8-0.6,1.4-1.4,1.4s-1.4-0.6-1.4-1.4c0-0.8,0.6-1.4,1.4-1.4
						C68.2,270.4,68.9,271,68.9,271.8C68.9,271.8,68.9,271.8,68.9,271.8z"/>
					<circle class="st28" cx="58.8" cy="398.5" r="0.6"/>
					<circle class="st28" cx="62.1" cy="396" r="0.9"/>
					<path class="st28" d="M65,400.1c0,0.6-0.4,1-1,1s-1-0.4-1-1s0.4-1,1-1S65,399.6,65,400.1z"/>
					<path class="st28" d="M71.4,396c0,0.5-0.4,0.9-0.9,0.9c-0.5,0-0.9-0.4-0.9-0.9c0-0.5,0.4-0.9,0.9-0.9c0,0,0,0,0,0
						C71,395.1,71.4,395.5,71.4,396z"/>
					<circle class="st28" cx="46.6" cy="393.2" r="1.3"/>
					<circle class="st28" cx="74" cy="406.1" r="0.9"/>
					<path class="st28" d="M480.7,5.8c0,0.4-0.3,0.7-0.7,0.7s-0.7-0.3-0.7-0.7c0-0.4,0.3-0.7,0.7-0.7S480.7,5.4,480.7,5.8
						C480.7,5.8,480.7,5.8,480.7,5.8z"/>
					<path class="st28" d="M657,129.2c0,0.7-0.6,1.3-1.3,1.3s-1.3-0.6-1.3-1.3s0.6-1.3,1.3-1.3S657,128.5,657,129.2L657,129.2z"/>
					<circle class="st28" cx="658.2" cy="123.6" r="1.2"/>
					<path class="st28" d="M662,129.2c0,0.7-0.6,1.3-1.3,1.3s-1.3-0.6-1.3-1.3s0.6-1.3,1.3-1.3S662,128.5,662,129.2L662,129.2z"/>
					<path class="st28" d="M668,121c0,0.8-0.7,1.5-1.5,1.5s-1.5-0.7-1.5-1.5s0.7-1.5,1.5-1.5l0,0C667.3,119.5,668,120.2,668,121z"/>
					<path class="st28" d="M657,108.4c0,0.4-0.3,0.7-0.7,0.7c-0.4,0-0.7-0.3-0.7-0.7s0.3-0.7,0.7-0.7
						C656.8,107.8,657,108.1,657,108.4z"/>
					<path class="st28" d="M682,133.2c0,1.5-1.2,2.7-2.7,2.7s-2.7-1.2-2.7-2.7s1.2-2.7,2.7-2.7C680.8,130.5,682,131.7,682,133.2
						C682,133.2,682,133.2,682,133.2z"/>
					<path class="st28" d="M654.4,174.6c0,0.7-0.5,1.2-1.2,1.2s-1.2-0.5-1.2-1.2c0-0.7,0.5-1.2,1.2-1.2c0,0,0,0,0,0
						C653.9,173.4,654.4,174,654.4,174.6z"/>
					<path class="st28" d="M622.6,77.1c0,1-0.8,1.8-1.8,1.8c-1,0-1.8-0.8-1.8-1.8c0-1,0.8-1.8,1.8-1.8c0,0,0,0,0,0
						C621.9,75.3,622.6,76.1,622.6,77.1C622.6,77.1,622.6,77.1,622.6,77.1z"/>
					<circle class="st28" cx="625.9" cy="71.5" r="1.2"/>
					<circle class="st28" cx="629.2" cy="77.9" r="0.9"/>
					<circle class="st28" cx="637.1" cy="69.3" r="1.1"/>
					<path class="st28" d="M638.2,57.7c0,0.6-0.5,1.1-1.1,1.1c-0.6,0-1.1-0.5-1.1-1.1s0.5-1.1,1.1-1.1l0,0
						C637.7,56.6,638.2,57.1,638.2,57.7z"/>
					<path class="st28" d="M643.6,62.8c0,0.7-0.6,1.3-1.3,1.3s-1.3-0.6-1.3-1.3c0-0.7,0.6-1.3,1.3-1.3c0,0,0,0,0,0
						C643,61.5,643.6,62.1,643.6,62.8C643.6,62.8,643.6,62.8,643.6,62.8z"/>
					<circle class="st28" cx="250.9" cy="129.6" r="1.7"/>
					<circle class="st28" cx="252.8" cy="137.4" r="1.9"/>
					<path class="st28" d="M237.6,134.7c0,0.5-0.4,0.8-0.9,0.8s-0.8-0.4-0.8-0.9c0-0.5,0.4-0.8,0.8-0.8S237.6,134.2,237.6,134.7
						L237.6,134.7z"/>
					<path class="st28" d="M242.2,144.6c0,1.3-1,2.3-2.3,2.3c-1.3,0-2.3-1-2.3-2.3c0-1.3,1-2.3,2.3-2.3c0,0,0,0,0,0
						C241.2,142.3,242.2,143.3,242.2,144.6z"/>
					<path class="st28" d="M254.7,151.8c0,1.1-0.9,1.9-1.9,1.9c-1.1,0-1.9-0.9-1.9-1.9c0-1.1,0.9-1.9,1.9-1.9
						C253.9,149.9,254.7,150.8,254.7,151.8z"/>
					<path class="st28" d="M268.3,145.8c0,0.6-0.5,1.2-1.2,1.2c-0.6,0-1.2-0.5-1.2-1.2s0.5-1.2,1.2-1.2c0,0,0,0,0,0
						C267.7,144.6,268.3,145.1,268.3,145.8z"/>
					<path class="st28" d="M207.2,123.4c0,1.3-1.1,2.3-2.3,2.3c-1.3,0-2.3-1.1-2.3-2.3c0-1.3,1-2.3,2.3-2.3
						C206.2,121.1,207.2,122.1,207.2,123.4C207.2,123.4,207.2,123.4,207.2,123.4z"/>
					<circle class="st28" cx="215.9" cy="114.5" r="1.5"/>
					<path class="st28" d="M319.1,408.7c0,0.6-0.4,1-1,1s-1-0.4-1-1s0.4-1,1-1S319.1,408.1,319.1,408.7z"/>
					<path class="st28" d="M324.3,402.4c0,1-0.8,1.8-1.8,1.8s-1.8-0.8-1.8-1.8s0.8-1.8,1.8-1.8l0,0
						C323.5,400.6,324.3,401.4,324.3,402.4z"/>
					<path class="st28" d="M330.8,412.2c0,0.5-0.4,0.9-0.9,0.9s-0.9-0.4-0.9-0.9c0-0.5,0.4-0.9,0.9-0.9
						C330.4,411.3,330.8,411.7,330.8,412.2L330.8,412.2z"/>
					<path class="st28" d="M337.3,405.9c0,1-0.8,1.8-1.8,1.8s-1.8-0.8-1.8-1.8c0-1,0.8-1.8,1.8-1.8c0,0,0,0,0,0
						C336.5,404.2,337.3,405,337.3,405.9z"/>
					<path class="st28" d="M353.6,397c0,1-0.8,1.8-1.8,1.8s-1.8-0.8-1.8-1.8s0.8-1.8,1.8-1.8l0,0C352.9,395.2,353.6,396,353.6,397z"
						/>
					<circle class="st28" cx="356.8" cy="416.2" r="3.1"/>
					<path class="st28" d="M371.8,409.2c0,0.3-0.2,0.5-0.5,0.5c0,0,0,0,0,0c-0.3,0-0.5-0.2-0.5-0.5c0,0,0,0,0,0
						c0-0.3,0.2-0.5,0.5-0.5C371.6,408.7,371.8,408.9,371.8,409.2C371.8,409.2,371.8,409.2,371.8,409.2z"/>
					<path class="st28" d="M318.1,380.8c0,1-0.8,1.8-1.8,1.8c-1,0-1.8-0.8-1.8-1.8c0-1,0.8-1.8,1.8-1.8
						C317.3,378.9,318.1,379.7,318.1,380.8C318.1,380.7,318.1,380.8,318.1,380.8z"/>
					<circle class="st28" cx="330.9" cy="389.2" r="1.9"/>
				</g>
			</g>
		</g>
	</g>
</g>
</svg>
