<svg id="Layer_3" data-name="Layer 3" xmlns="http://www.w3.org/2000/svg" viewBox="0 0 720 225"><defs><style>.cls-1,.cls-2,.cls-3{fill:#fff;}.cls-2,.cls-3{stroke:#231f20;stroke-miterlimit:10;}.cls-3{stroke-width:0.5px;}</style></defs><title>logo</title><rect class="cls-1" x="19.5" y="79.3" width="23.25" height="137.45"/><path class="cls-1" d="M73.29,79.3v86.4a51.06,51.06,0,0,0,51.06,51.05h11.78a51.07,51.07,0,0,0,51.05-51.05V79.3H163.62v86.61a32.52,32.52,0,0,1-32.51,32.51h0A32.5,32.5,0,0,1,98.6,165.93V79.3Z"/><rect class="cls-1" x="209.44" y="79.3" width="100.36" height="18.33"/><rect class="cls-1" x="248.27" y="79.3" width="23.13" height="137.45"/><path class="cls-1" d="M341.22,146a146.74,146.74,0,0,1,36-16,17.6,17.6,0,0,0-6.77.66V107.24h22.48l31.2-17.91v-10H341.22Z"/><path class="cls-1" d="M330.31,187.51s14.62-29.89,93.82-52.14V143l-31.2,18.44H370.24v55.31h-29V181.4Z"/><path class="cls-1" d="M459.91,5.56,429.8,19.71V64.22H446V216.31h31V62.47h15.2V17.09Zm-4.31,9.69-5.07,20c-1.69,5.52-11.34,8.44-13.27,3l-4.14-11.62a2.79,2.79,0,0,1,1.35-3.4l19-9.71a1.51,1.51,0,0,1,2.13,1.73Zm34.1,8.46L487.25,35.8c-.5,2.42-4.15,3.28-7.2,3A13.37,13.37,0,0,1,468.64,29l-2.78-13.36a1.5,1.5,0,0,1,1.85-2.06l20.18,7A2.78,2.78,0,0,1,489.7,23.71Z"/><path class="cls-1" d="M429.8,64.22V61.75L461,49.67l31.2,10.77v2H476.93V78s-3.93.58-4.8,0-2.48-3.2-3.64-2.91-5.82,7.27-7.49,5.38-4.58-8-10.11-7.13S446,76,446,76V64.22Z"/><path class="cls-1" d="M333.15,218.75s-37.75-8.7-29-31.82,43.68-41.55,67.63-52.56c26.62-12.24,76.8-21,120.44-45.62C523.15,71.27,561,40.09,569,31.58c0,0-18.32,30.53-37.75,46.72-20,16.64-31.18,33.14-92.07,50.15C381.29,144.64,298.45,169.63,333.15,218.75Z"/><path class="cls-1" d="M636.85,95.85s-21.38,23.35-22.47,22.7S574,95.2,555.91,108.73s30.54,30.76,37.09,28.8l-22.69,22.69s-45.6-4.4-50.18-34,15.49-45.32,43.63-46.87S636.85,95.85,636.85,95.85Z"/><path class="cls-1" d="M500.49,192.73l23.35-23.13s10.91,12,27.71,15.71l89.23-85.75L554.16,213.67s-22.07-3.47-38.4-15.92C507,191.06,500.49,192.73,500.49,192.73Z"/><path class="cls-1" d="M562.67,215.42,643.4,102l-27.27,47.79s19,17.67,7.63,41.45S581.65,222,562.67,215.42Z"/><polygon class="cls-1" points="640.78 94.33 647.44 84.73 648.86 85.93 640.78 94.33"/><polygon class="cls-1" points="642.53 99.56 650.49 88.98 652.56 88.22 652.56 90.94 642.53 99.56"/><polygon class="cls-1" points="649.62 99.56 654.75 92.47 656.93 92.47 656.27 93.89 649.62 99.56"/><polygon class="cls-2" points="648.22 83.5 654.07 77.44 663.8 86.58 658.56 92.47 648.22 83.5"/><path class="cls-2" d="M654.85,78.18,686.6,38.8s3.38-4.47,13.31-7.42c0,0,.11,9.06-3.82,14.84s-32.8,39.88-32.8,39.88Z"/><polygon class="cls-2" points="644.82 79.2 665.67 67.57 654.86 78.18 644.82 79.2"/><polygon class="cls-2" points="664.89 94.98 663.29 86.1 672.64 73.13 664.89 94.98"/><polyline class="cls-3" points="682.46 48.51 685.84 51.34 693.04 43.49"/><polygon class="cls-1" points="550.56 33.83 551.43 36.51 554.25 36.51 551.97 38.17 552.84 40.84 550.56 39.19 548.29 40.84 549.16 38.17 546.88 36.51 549.69 36.51 550.56 33.83"/><polygon class="cls-1" points="558.31 26.24 559.39 29.57 562.89 29.57 560.06 31.62 561.14 34.95 558.31 32.89 555.48 34.95 556.56 31.62 553.73 29.57 557.23 29.57 558.31 26.24"/></svg>