<svg id="Layer_3" data-name="Layer 3" xmlns="http://www.w3.org/2000/svg" viewBox="0 0 720 360"><defs><style>.cls-1,.cls-2,.cls-3{fill:#fff;}.cls-2,.cls-3{stroke:#231f20;stroke-miterlimit:10;}.cls-3{stroke-width:0.5px;}</style></defs><title>logo</title><rect class="cls-1" x="19.5" y="152.3" width="23.25" height="137.45"/><path class="cls-1" d="M73.29,152.3v86.4a51.06,51.06,0,0,0,51.06,51.05h11.78a51.06,51.06,0,0,0,51.05-51.05V152.3H163.62v86.61a32.51,32.51,0,0,1-32.51,32.51h0A32.5,32.5,0,0,1,98.6,238.91V152.3Z"/><rect class="cls-1" x="209.44" y="152.3" width="100.36" height="18.33"/><rect class="cls-1" x="248.27" y="152.3" width="23.13" height="137.45"/><path class="cls-1" d="M341.22,219a146.8,146.8,0,0,1,36-16,17.64,17.64,0,0,0-6.77.66V180.24h22.48l31.2-17.91v-10H341.22Z"/><path class="cls-1" d="M330.31,260.51s14.62-29.89,93.82-52.14V216l-31.2,18.44H370.24v55.31h-29V254.4Z"/><path class="cls-1" d="M459.91,78.56,429.8,92.71v44.51H446V289.31h31V135.47H492.2V90.09Zm-4.31,9.69-5.07,20c-1.69,5.52-11.34,8.44-13.27,3l-4.14-11.62a2.79,2.79,0,0,1,1.35-3.4l19-9.71A1.51,1.51,0,0,1,455.6,88.25Zm34.1,8.46-2.45,12.09c-.5,2.42-4.15,3.28-7.2,3A13.37,13.37,0,0,1,468.64,102l-2.78-13.36a1.5,1.5,0,0,1,1.85-2.06l20.18,7A2.77,2.77,0,0,1,489.7,96.71Z"/><path class="cls-1" d="M429.8,137.22v-2.47L461,122.67l31.2,10.77v2H476.93V151s-3.93.58-4.8,0-2.48-3.2-3.64-2.91-5.82,7.27-7.49,5.38-4.58-8-10.11-7.13S446,149,446,149V137.22Z"/><path class="cls-1" d="M333.15,291.75s-37.75-8.7-29-31.82,43.68-41.55,67.63-52.56c26.62-12.24,76.8-21,120.44-45.62,30.93-17.48,68.73-48.66,76.8-57.17,0,0-18.32,30.53-37.75,46.72-20,16.64-31.18,33.14-92.07,50.15C381.29,217.64,298.45,242.63,333.15,291.75Z"/><path class="cls-1" d="M636.85,168.85s-21.38,23.35-22.47,22.7S574,168.2,555.91,181.73s30.54,30.76,37.09,28.8l-22.69,22.69s-45.6-4.4-50.18-34.05,15.49-45.32,43.63-46.87S636.85,168.85,636.85,168.85Z"/><path class="cls-1" d="M500.49,265.73l23.35-23.13s10.91,12,27.71,15.71l89.23-85.75L554.16,286.67s-22.07-3.47-38.4-15.92C507,264.06,500.49,265.73,500.49,265.73Z"/><path class="cls-1" d="M562.67,288.42,643.4,175l-27.27,47.79s19,17.67,7.63,41.45S581.65,295,562.67,288.42Z"/><polygon class="cls-1" points="640.78 167.33 647.44 157.73 648.86 158.93 640.78 167.33"/><polygon class="cls-1" points="642.53 172.56 650.49 161.98 652.56 161.22 652.56 163.94 642.53 172.56"/><polygon class="cls-1" points="649.62 172.56 654.75 165.47 656.93 165.47 656.27 166.89 649.62 172.56"/><polygon class="cls-2" points="648.22 156.5 654.07 150.44 663.8 159.58 658.56 165.47 648.22 156.5"/><path class="cls-2" d="M654.85,151.18,686.6,111.8s3.38-4.47,13.31-7.42c0,0,.11,9.06-3.82,14.84s-32.8,39.88-32.8,39.88Z"/><polygon class="cls-2" points="644.82 152.2 665.67 140.57 654.86 151.18 644.82 152.2"/><polygon class="cls-2" points="664.89 167.98 663.29 159.1 672.64 146.13 664.89 167.98"/><polyline class="cls-3" points="682.46 121.51 685.84 124.34 693.04 116.49"/><polygon class="cls-1" points="550.56 106.83 551.43 109.51 554.25 109.51 551.97 111.17 552.84 113.84 550.56 112.19 548.29 113.84 549.16 111.17 546.88 109.51 549.69 109.51 550.56 106.83"/><polygon class="cls-1" points="558.31 99.24 559.39 102.57 562.89 102.57 560.06 104.62 561.14 107.95 558.31 105.89 555.48 107.95 556.56 104.62 553.73 102.57 557.23 102.57 558.31 99.24"/></svg>